<svg id="productreturn" xmlns="http://www.w3.org/2000/svg" width="30.667" height="30" viewBox="0 0 30.667 30" xmlns:xlink="http://www.w3.org/1999/xlink">
<path id="Subtraction_44" data-name="Subtraction 44" d="M13.033,30a.371.371,0,0,1-.182-.046L.185,22.633A.361.361,0,0,1,0,22.32V7.682a.367.367,0,0,1,.185-.313L12.85.052a.344.344,0,0,1,.364,0L25.88,7.369a.371.371,0,0,1,.18.313v8.246l.077.028a8.48,8.48,0,0,1,1.937,1.124,6.509,6.509,0,0,1,1.1,9.351A8.663,8.663,0,0,1,23.952,29.4a.351.351,0,0,1-.427-.28.364.364,0,0,1,.209-.408c2.38-1.075,3.605-2.932,3.2-4.846a3.682,3.682,0,0,0-.687-1.451l-.132-.171-.075.2a.365.365,0,0,1-.157.19L13.215,29.954A.374.374,0,0,1,13.033,30Zm12.3-21.688h0l-11.939,6.9V29.006l11.94-6.9v-.564l-.066-.043-.008-.007h0l-.01-.008a6.525,6.525,0,0,0-3.33-1.029l-.129,0V22.2a.369.369,0,0,1-.2.327.345.345,0,0,1-.16.038.373.373,0,0,1-.219-.071l-5.581-4.1a.361.361,0,0,1-.02-.574l5.582-4.675a.372.372,0,0,1,.237-.084.377.377,0,0,1,.152.032.364.364,0,0,1,.208.332v1.679H21.9a12.859,12.859,0,0,1,3.274.507l.157.047V8.312ZM.73,8.312h0V22.106l11.939,6.9V15.212L8.9,13.035v5.131a.363.363,0,0,1-.18.318.382.382,0,0,1-.183.046.364.364,0,0,1-.181-.046L4.681,16.359a.359.359,0,0,1-.18-.313V10.494L.73,8.312Zm20.7,11.4a7.464,7.464,0,0,1,4.231,1.166,4.667,4.667,0,0,1,1.986,2.831,4.251,4.251,0,0,1-.559,3.125,5.048,5.048,0,0,1-.318.469l.157.171a6.2,6.2,0,0,0,2.995-5.766c-.266-2.715-2.649-5.884-8.491-5.884a.36.36,0,0,1-.36-.36V14.206l-4.629,3.879,4.629,3.4v-1.4A.363.363,0,0,1,21.426,19.716ZM5.227,10.91h0v4.922l2.947,1.7V12.613l-2.947-1.7ZM21.2,5.5h0L9.263,12.4l3.768,2.176,11.939-6.9L21.2,5.505Zm-3.671-2.12h0L5.591,10.28l2.947,1.7L20.474,5.088l-2.947-1.7Zm-4.5-2.6h0L1.095,7.682,4.861,9.863l11.94-6.9L13.03.787Z"></path>
</svg>