<svg id="Free_Shipping_Countrywide" data-name="Free Shipping Countrywide" xmlns="http://www.w3.org/2000/svg" width="44.516" height="30" viewBox="0 0 44.516 30" xmlns:xlink="http://www.w3.org/1999/xlink">
<g id="Group_696" data-name="Group 696" transform="translate(0)">
<path id="Subtraction_47" data-name="Subtraction 47" d="M35.33,30a4.82,4.82,0,0,1-4.637-3.623L30.5,25.64H16.916l-.189.737a4.775,4.775,0,0,1-9.268,0L7.27,25.64H2.9V17.434h.946v7.261H7.27l.189-.732a4.775,4.775,0,0,1,9.268,0l.189.732H27.594V.946H0V0H28.538V5.813H41.465l.1.314,2.906,8.729.045.1V25.64H40.152l-.191.737A4.8,4.8,0,0,1,35.33,30Zm0-8.719a3.864,3.864,0,1,0,2.752,1.135A3.867,3.867,0,0,0,35.33,21.281Zm-23.241,0a3.864,3.864,0,1,0,2.759,1.135A3.867,3.867,0,0,0,12.089,21.281ZM35.33,20.34a4.8,4.8,0,0,1,4.632,3.623l.191.732H43.57V15.02L40.8,6.753H28.538V24.695H30.5l.189-.732A4.808,4.808,0,0,1,35.33,20.34ZM9.663,12.566H2.9v-.946H9.663v.944Zm2.9-5.813H1.458V5.813H12.564v.94Z"></path>
</g>
</svg>