<svg id="noun-warranty-4011304" xmlns="http://www.w3.org/2000/svg" width="30" height="30" viewBox="0 0 30 30" xmlns:xlink="http://www.w3.org/1999/xlink">
<g id="Group_19539" data-name="Group 19539" transform="translate(0)">
<path id="Subtraction_43" data-name="Subtraction 43" d="M15,30a.376.376,0,0,1-.157-.034A26.439,26.439,0,0,1,6.455,23.51,27.543,27.543,0,0,1,0,8.021a.346.346,0,0,1,.287-.374A27.088,27.088,0,0,0,7.837,5.128,26.856,26.856,0,0,0,14.746.1.372.372,0,0,1,15,0a.364.364,0,0,1,.25.1,26.832,26.832,0,0,0,6.915,5.028,26.822,26.822,0,0,0,7.547,2.518A.352.352,0,0,1,30,8.021,27.53,27.53,0,0,1,23.54,23.505a26.394,26.394,0,0,1-8.388,6.46A.369.369,0,0,1,15,30ZM15,.839h0l-.2.192A27.7,27.7,0,0,1,8.152,5.753,27.683,27.683,0,0,1,.986,8.226l-.255.05.026.265A26.8,26.8,0,0,0,6.984,23.049a25.675,25.675,0,0,0,7.885,6.146l.128.064.131-.064a25.8,25.8,0,0,0,7.886-6.146A26.828,26.828,0,0,0,29.242,8.536l.027-.26-.261-.05a27.81,27.81,0,0,1-7.16-2.473A27.759,27.759,0,0,1,15.2,1.031L15,.839Z"></path>
<g id="Group_19919" data-name="Group 19919" transform="translate(7.953 7.956)">
<path id="Subtraction_42" data-name="Subtraction 42" d="M7.049,14.087A7.044,7.044,0,1,1,7.049,0a.4.4,0,0,1,0,.808,6.235,6.235,0,1,0,6.236,6.235.4.4,0,0,1,.808,0A7.052,7.052,0,0,1,7.049,14.087Z"></path>
<path id="Subtraction_41" data-name="Subtraction 41" d="M3.389,8.19H3.358a.391.391,0,0,1-.285-.122L.118,5.12a.409.409,0,0,1,0-.576.416.416,0,0,1,.577,0L3.326,7.181,8.943.153A.413.413,0,0,1,9.261,0a.406.406,0,0,1,.4.359.405.405,0,0,1-.085.3l-5.9,7.377A.408.408,0,0,1,3.389,8.19Z" transform="translate(3.334 1.773)"></path>
</g>
</g>
</svg>