<svg xmlns="http://www.w3.org/2000/svg" width="30" height="30" viewBox="0 0 30 30" xmlns:xlink="http://www.w3.org/1999/xlink">
<g id="Serviced_Across_India" data-name="Serviced  Across India" transform="translate(0.414)">
<path id="Subtraction_46" data-name="Subtraction 46" d="M15.931,30H14.064a1.854,1.854,0,0,1-1.838-1.843,1.2,1.2,0,0,0-.869-1.138,12.6,12.6,0,0,1-2.272-.942,1.218,1.218,0,0,0-.588-.154,1.2,1.2,0,0,0-.844.345,1.843,1.843,0,0,1-1.3.532,1.823,1.823,0,0,1-1.3-.532L3.733,24.943a1.848,1.848,0,0,1,0-2.6,1.194,1.194,0,0,0,.192-1.418,12.761,12.761,0,0,1-.943-2.276,1.212,1.212,0,0,0-1.147-.877A1.844,1.844,0,0,1,0,15.931V14.065a1.847,1.847,0,0,1,1.839-1.838,1.192,1.192,0,0,0,1.138-.868A12.568,12.568,0,0,1,3.92,9.087a1.2,1.2,0,0,0-.192-1.432,1.849,1.849,0,0,1,0-2.6l1.317-1.32a1.848,1.848,0,0,1,2.6,0,1.209,1.209,0,0,0,1.423.191,12.654,12.654,0,0,1,2.272-.942,1.209,1.209,0,0,0,.878-1.148A1.852,1.852,0,0,1,14.064,0h1.867a1.854,1.854,0,0,1,1.838,1.843,1.206,1.206,0,0,0,.869,1.138,12.431,12.431,0,0,1,2.277.942,1.223,1.223,0,0,0,.588.154,1.2,1.2,0,0,0,.845-.345,1.853,1.853,0,0,1,2.6,0l1.321,1.32a1.856,1.856,0,0,1,0,2.6,1.21,1.21,0,0,0-.192,1.423,12.991,12.991,0,0,1,.947,2.276,1.2,1.2,0,0,0,1.143.872A1.852,1.852,0,0,1,30,14.065v1.871a1.852,1.852,0,0,1-1.838,1.838,1.208,1.208,0,0,0-1.143.868,12.421,12.421,0,0,1-.943,2.272,1.212,1.212,0,0,0,.192,1.437,1.853,1.853,0,0,1,0,2.6l-1.321,1.316a1.847,1.847,0,0,1-2.6,0,1.218,1.218,0,0,0-.845-.34,1.2,1.2,0,0,0-.579.149,12.644,12.644,0,0,1-2.272.942,1.21,1.21,0,0,0-.878,1.148A1.852,1.852,0,0,1,15.931,30ZM8.5,25.274h.01a1.875,1.875,0,0,1,.89.229,12.186,12.186,0,0,0,2.147.891,1.849,1.849,0,0,1,1.335,1.759,1.2,1.2,0,0,0,1.185,1.194h1.867a1.2,1.2,0,0,0,1.185-1.19,1.85,1.85,0,0,1,1.344-1.768,12.011,12.011,0,0,0,2.147-.891,1.864,1.864,0,0,1,2.194.3,1.194,1.194,0,0,0,1.684,0l1.321-1.32a1.194,1.194,0,0,0,0-1.675,1.856,1.856,0,0,1-.3-2.206,11.994,11.994,0,0,0,.886-2.146,1.858,1.858,0,0,1,1.765-1.339,1.194,1.194,0,0,0,1.189-1.185V14.069a1.2,1.2,0,0,0-1.189-1.19,1.86,1.86,0,0,1-1.769-1.339A11.371,11.371,0,0,0,25.5,9.4a1.862,1.862,0,0,1,.3-2.2,1.189,1.189,0,0,0,0-1.679L24.484,4.2a1.176,1.176,0,0,0-.839-.345,1.157,1.157,0,0,0-.836.345A1.887,1.887,0,0,1,21.5,4.73a1.835,1.835,0,0,1-.9-.233,12.039,12.039,0,0,0-2.147-.886,1.865,1.865,0,0,1-1.34-1.763A1.2,1.2,0,0,0,15.931.653H14.064a1.192,1.192,0,0,0-1.185,1.185,1.861,1.861,0,0,1-1.344,1.773A11.7,11.7,0,0,0,9.389,4.5,1.878,1.878,0,0,1,7.2,4.2a1.194,1.194,0,0,0-1.679,0L4.2,5.519a1.182,1.182,0,0,0,0,1.675,1.874,1.874,0,0,1,.3,2.206,11.82,11.82,0,0,0-.887,2.151A1.857,1.857,0,0,1,1.839,12.88a1.2,1.2,0,0,0-1.19,1.19v1.861a1.193,1.193,0,0,0,1.186,1.185,1.87,1.87,0,0,1,1.773,1.343A11.38,11.38,0,0,0,4.5,20.6a1.864,1.864,0,0,1-.3,2.2,1.2,1.2,0,0,0,0,1.684L5.511,25.8a1.188,1.188,0,0,0,1.679,0A1.848,1.848,0,0,1,8.5,25.274Z" transform="translate(-0.414)"></path>
<path id="Subtraction_45" data-name="Subtraction 45" d="M8.246,16.491A8.245,8.245,0,1,1,16.5,8.248,8.254,8.254,0,0,1,8.246,16.491ZM6.12,4.227h0l-.3.269a3.645,3.645,0,0,0,.97,6.065.307.307,0,0,1,.182.283v4.928l.154.024a7.307,7.307,0,0,0,1.119.082A7.209,7.209,0,0,0,9.365,15.8l.152-.024V10.844a.31.31,0,0,1,.188-.283,3.645,3.645,0,0,0,.97-6.065l-.3-.269V7.015a.312.312,0,0,1-.124.245L8.428,8.579a.311.311,0,0,1-.182.058.314.314,0,0,1-.183-.058L6.244,7.26a.317.317,0,0,1-.124-.25V4.227ZM8.246.614A7.632,7.632,0,0,0,6.129,15.579l.23.062v-4.6l-.1-.053a4.257,4.257,0,0,1,.025-7.552.313.313,0,0,1,.3.01.319.319,0,0,1,.149.264V6.856l1.512,1.1,1.512-1.1V3.709a.317.317,0,0,1,.149-.264.325.325,0,0,1,.161-.043.319.319,0,0,1,.142.033,4.259,4.259,0,0,1,.019,7.552l-.1.053v4.6l.231-.062A7.632,7.632,0,0,0,8.246.614Z" transform="translate(5.933 7)"></path>
</g>
</svg>