<svg xmlns="http://www.w3.org/2000/svg" width="45.5" height="29.5" viewBox="0 0 45.5 29.5" xmlns:xlink="http://www.w3.org/1999/xlink">
<g id="cashondelivery2" transform="translate(-0.25 -0.25)">
<path id="Subtraction_62" data-name="Subtraction 62" d="M-7554.568,1758h-37.839a1.1,1.1,0,0,1-1.094-1.1V1734.54a1.1,1.1,0,0,1,1.094-1.1h1.553v-1.285a1.1,1.1,0,0,1,1.094-1.1h1.734V1729.6a1.1,1.1,0,0,1,1.092-1.1h37.84a1.079,1.079,0,0,1,.772.322,1.083,1.083,0,0,1,.32.776v22.361a1.1,1.1,0,0,1-1.092,1.1h-1.734v1.464a1.1,1.1,0,0,1-1.092,1.1h-1.555v1.284A1.1,1.1,0,0,1-7554.568,1758Zm-38.088-23.7,0,22.857,38.336,0,0-1.53h-35.439a1.1,1.1,0,0,1-1.094-1.1V1734.3Zm2.647-2.382,0,22.857,38.086,0h.25l0-1.71h-35.26a1.1,1.1,0,0,1-1.092-1.1v-20.046Zm41.161-2.567-38.334.006,0,22.857,38.086,0h.25l-.006-22.859Z" transform="translate(7593.75 -1728.25)"></path>
<path id="Subtraction_61" data-name="Subtraction 61" d="M-7590.164,1747.9h0v-.08a.553.553,0,0,1-.553-.5,2.545,2.545,0,0,0-2.279-2.277.553.553,0,0,1-.5-.557v-12.641a.549.549,0,0,1,.5-.555,2.546,2.546,0,0,0,2.279-2.279.556.556,0,0,1,.557-.5h12.666a.4.4,0,0,1,.4.4.4.4,0,0,1-.4.4h-12.443l-.043.193a3.373,3.373,0,0,1-2.514,2.516l-.194.044v12.192l.194.046a3.373,3.373,0,0,1,2.514,2.514l.043.194h12.438a.411.411,0,0,1,.288.118.4.4,0,0,1,.118.286.406.406,0,0,1-.406.4h-12.662Zm27.736-.08h-12.034a.4.4,0,0,1-.286-.118.4.4,0,0,1-.118-.286.4.4,0,0,1,.4-.4h11.807l.044-.194a3.371,3.371,0,0,1,2.514-2.514l.194-.044v-12.194l-.194-.044a3.371,3.371,0,0,1-2.514-2.514l-.044-.194h-11.8a.405.405,0,0,1-.406-.4.405.405,0,0,1,.406-.4h12.021a.556.556,0,0,1,.556.5,2.546,2.546,0,0,0,2.28,2.279.559.559,0,0,1,.5.557v12.64a.556.556,0,0,1-.5.557,2.546,2.546,0,0,0-2.28,2.279A.551.551,0,0,1-7562.428,1747.815Z" transform="translate(7602.625 -1726.031)"></path>
<path id="Subtraction_60" data-name="Subtraction 60" d="M-7586.819,1741.862a6.688,6.688,0,0,1-6.682-6.68,6.689,6.689,0,0,1,6.682-6.682,6.69,6.69,0,0,1,6.682,6.682A6.689,6.689,0,0,1-7586.819,1741.862Zm0-12.554a5.879,5.879,0,0,0-5.872,5.874,5.878,5.878,0,0,0,5.872,5.872,5.88,5.88,0,0,0,5.874-5.872A5.881,5.881,0,0,0-7586.819,1729.308Z" transform="translate(7612.592 -1722.725)"></path>
</g>
</svg>