<svg xmlns="http://www.w3.org/2000/svg" width="17.272" height="17.272" viewBox="0 0 17.272 17.272">
  <g id="Group_619" data-name="Group 619" transform="translate(0 0)">
    <g id="layer1">
      <path id="path3078" d="M55.5,1002.35H72.766v9.324l-.855,1.336.855,1.189v5.424H55.5v-8.79l.534-.615-.534-.588Z" transform="translate(-55.493 -1002.35)" fill="#fff"/>
      <rect id="Rectangle_311" data-name="Rectangle 311" width="0.864" height="1.727" transform="translate(16.026 9.523)" fill="#fff"/>
      <path id="Subtraction_22" data-name="Subtraction 22" d="M6.649,2.5H5.6V1.827h0a.506.506,0,0,1-.11.047.959.959,0,0,1-.141.032,1.327,1.327,0,0,1-.2.015H4.79V2.5H3.2l-.284-.378L2.63,2.5H0V0H2.647l.284.37L3.224,0h9.607V.308h-.893a.8.8,0,0,0-.572.182A.546.546,0,0,0,11.2.9a.562.562,0,0,0,.148.406.58.58,0,0,0,.424.154H12.2a.219.219,0,0,1,.151.05.146.146,0,0,1,.047.109.152.152,0,0,1-.012.059.14.14,0,0,1-.036.05.173.173,0,0,1-.062.035.286.286,0,0,1-.089.013h-.936V2.18h1a.557.557,0,0,0,.571-.358v.506h0a1.1,1.1,0,0,1-.162.085,1.148,1.148,0,0,1-.173.059.881.881,0,0,1-.207.028H6.97l-.32-.394V2.5ZM4,.308V2.18h.48V1.589h.493A.645.645,0,0,0,5.707.938a.617.617,0,0,0-.672-.63ZM2.917,1.6h0l.44.576h.589L3.2,1.244,3.953.308H3.386L2.931.894,2.478.308H1.889l.761.947-.743.924h.581L2.917,1.6Zm6.629.17V2.18h1a.731.731,0,0,0,.269-.047A.52.52,0,0,0,11,2a.533.533,0,0,0,.113-.189.7.7,0,0,0,.037-.231.513.513,0,0,0-.588-.537h-.443A.169.169,0,0,1,9.993.994.165.165,0,0,1,9.95.884.143.143,0,0,1,9.992.778a.217.217,0,0,1,.155-.049h.788l.2-.421H10.22A.8.8,0,0,0,9.648.49.546.546,0,0,0,9.486.9a.562.562,0,0,0,.148.406.58.58,0,0,0,.424.154h.423a.219.219,0,0,1,.151.05.146.146,0,0,1,.047.109.152.152,0,0,1-.012.059.14.14,0,0,1-.036.05.173.173,0,0,1-.062.035.286.286,0,0,1-.089.013ZM7.8.308V2.18H9.329V1.773H8.275V1.441H9.3V1.047H8.275V.727H9.329V.308ZM.32.308V2.18H1.847V1.773H.793V1.441H1.822V1.047H.793V.727H1.847V.308ZM6.576,1.515l.561.665h.572l-.616-.69a.567.567,0,0,0,.351-.169.561.561,0,0,0,.117-.177A.591.591,0,0,0,7.606.915.607.607,0,0,0,6.952.308H5.911V2.18h.468V1.515h.2Zm6.255-.158a.53.53,0,0,0-.548-.31h-.443A.169.169,0,0,1,11.71.994a.165.165,0,0,1-.043-.111.143.143,0,0,1,.042-.106.217.217,0,0,1,.155-.049h.788l.179-.382v1.01ZM5,1.162H4.482V.732H5a.279.279,0,0,1,.093.015.211.211,0,0,1,.073.043.206.206,0,0,1,.065.158.219.219,0,0,1-.017.086.2.2,0,0,1-.048.068.218.218,0,0,1-.073.045A.27.27,0,0,1,5,1.162ZM6.92,1.121H6.379V.727h.535a.23.23,0,0,1,.159.062.189.189,0,0,1,.063.135.177.177,0,0,1-.02.083.2.2,0,0,1-.052.062A.236.236,0,0,1,6.92,1.121Z" transform="translate(4.441 9.46)"/>
      <rect id="Rectangle_310" data-name="Rectangle 310" width="0.864" height="0.864" transform="translate(0 7.594)" fill="#fff"/>
      <path id="Subtraction_21" data-name="Subtraction 21" d="M16.207,2.5H15.025l-.309-.443V2.5H13l-.173-.394h-.462l-.17.394H11.024a1.184,1.184,0,0,1-.317-.043,1.242,1.242,0,0,1-.241-.1,1.039,1.039,0,0,1-.208-.139V2.5H8.5L8.15,2.106V2.5H1.61l-.173-.394H.976L.8,2.5H0V1.391L.651,0H1.776l.369.779V0h1.4l.22.563L3.978,0h6.281V.283h0a1.137,1.137,0,0,1,.233-.142,1.482,1.482,0,0,1,.275-.1A1.522,1.522,0,0,1,11.131,0l2.038.007.363.769V0H14.7l.322.442V0h1.182V2.5ZM12.268.308,11.391,2.18h.572l.162-.375h.942l.161.375h.584L12.934.308ZM8.07,1.515l.612.665h.623l-.671-.69a.642.642,0,0,0,.383-.169.56.56,0,0,0,.128-.177A.549.549,0,0,0,9.194.915.553.553,0,0,0,8.978.464a.809.809,0,0,0-.5-.156H7.345V2.18h.51V1.515H8.07ZM.881.308,0,2.18H.575l.162-.375h.942l.161.375h.584L1.547.308Zm13.5.665h0L15.23,2.18h.628V.308h-.51V1.484L14.519.308H13.87V2.18h.51V.973Zm-3.2-.665h0a1.33,1.33,0,0,0-.448.07.846.846,0,0,0-.316.2.931.931,0,0,0-.249.677.854.854,0,0,0,.874.928h.112l.215-.409h-.134a.784.784,0,0,1-.223-.029.47.47,0,0,1-.174-.092.492.492,0,0,1-.153-.393.6.6,0,0,1,.035-.208.459.459,0,0,1,.1-.159.432.432,0,0,1,.151-.1.507.507,0,0,1,.192-.036h.585V.308ZM9.4.308h0V2.18h.521V.308Zm-4.017,0h0V2.18H7.049V1.773H5.9V1.441H7.022V1.047H5.9V.726H7.049V.308ZM4.525.8h0V2.18h.51V.308H4.23l-.461,1.21L3.3.311l-.812,0V2.18h.51V.8L3.537,2.18h.447Zm8.355.6h-.575l.288-.655.287.655ZM1.493,1.4H.918L1.206.744l.287.655Zm6.953-.278H7.855V.727h.583a.264.264,0,0,1,.173.062A.183.183,0,0,1,8.68.924a.165.165,0,0,1-.022.083.2.2,0,0,1-.057.062A.272.272,0,0,1,8.446,1.121Z" transform="translate(0.007 5.855)"/>
    </g>
  </g>
</svg>
