<svg id="_ae285dff" data-name="#ae285dff" xmlns="http://www.w3.org/2000/svg" width="79.943" height="19" viewBox="0 0 79.943 19">
  <path id="path5" d="M17.812,10.47c1.17,1.939,2.35,3.872,3.507,5.818-1.87,3.183-3.713,6.381-5.647,9.529-.742,1.208-1.463,2.428-2.2,3.641-2.378.014-4.756.013-7.135.01.073-.157.144-.315.232-.465Q12.189,19.735,17.812,10.47Z" transform="translate(-6.34 -10.47)" fill="#fff"/>
  <path id="path7" d="M711.053,69q1.972,3.676,3.942,7.352c-.463.009-.927-.014-1.389,0-.311-.54-.58-1.1-.884-1.647-1.168-.035-2.337-.011-3.506-.014-.282.56-.589,1.1-.888,1.654-.457,0-.913.009-1.369.005,1.345-2.462,2.695-4.922,4.093-7.353M709.8,73.646c.8.011,1.594.009,2.392.016-.4-.743-.759-1.506-1.187-2.233Q710.392,72.531,709.8,73.646Z" transform="translate(-650.134 -64.338)" fill="#fff"/>
  <path id="path9" d="M811.084,68.66c1.985,1.725,3.97,3.451,5.93,5.2.054-1.582-.007-3.165.041-4.747l1.273.023c-.014,2.437-.007,4.875-.009,7.313-1.3-1.084-2.556-2.23-3.844-3.334-.716-.613-1.426-1.232-2.111-1.879-.017,1.6.008,3.206-.027,4.809-.422,0-.844-.009-1.265-.006C811.076,73.581,811.055,71.121,811.084,68.66Z" transform="translate(-746.067 -64.035)" fill="#fff"/>
  <path id="path11" d="M314.14,76.316c1.371-2.448,2.707-4.916,4.11-7.346q1.96,3.68,3.942,7.348c-.47.011-.939.01-1.409,0-.285-.548-.577-1.092-.85-1.647-1.172-.015-2.344,0-3.516,0-.306.553-.581,1.123-.911,1.663-.456-.013-.911,0-1.365-.017m2.847-2.69c.8,0,1.6.008,2.4.005-.4-.738-.758-1.5-1.191-2.225C317.793,72.144,317.39,72.884,316.987,73.625Z" transform="translate(-289.175 -64.31)" fill="#fff"/>
  <path id="path13" d="M530.044,73.163a3.432,3.432,0,0,1,2.18-.227,2.714,2.714,0,0,1,1.516,1.073c-.34.172-.678.347-1.012.53a1.52,1.52,0,0,0-2.177-.38.636.636,0,0,0,.073,1.048c.878.484,1.945.587,2.723,1.257a1.9,1.9,0,0,1,.028,2.723,3.159,3.159,0,0,1-3.088.674,2.306,2.306,0,0,1-1.657-1.917c.424-.093.853-.17,1.283-.236a1.36,1.36,0,0,0,.6,1.084,1.551,1.551,0,0,0,1.95-.352.979.979,0,0,0-.2-1.338c-.862-.578-2.008-.614-2.782-1.342a1.433,1.433,0,0,1-.439-1.444A1.8,1.8,0,0,1,530.044,73.163Z" transform="translate(-486.207 -67.882)" fill="#fff"/>
  <path id="path15" d="M410.958,74.172a10.312,10.312,0,0,1,1.453-.036q.777,1.157,1.555,2.313c.546-.761,1.077-1.533,1.615-2.3.5-.016.994-.024,1.491-.009q-1.182,1.644-2.371,3.285c.8,1.219,1.682,2.391,2.468,3.623-.473,0-.947,0-1.42-.006-.6-.867-1.2-1.737-1.8-2.6-.623.87-1.251,1.736-1.866,2.611-.479.009-.96,0-1.439,0,.834-1.222,1.711-2.413,2.578-3.612C412.473,76.346,411.713,75.26,410.958,74.172Z" transform="translate(-377.822 -69.047)" fill="#fff"/>
  <path id="path17" d="M500.489,74.187c.427-.013.853-.012,1.28,0q0,3.455,0,6.909h-1.3C500.486,78.791,500.478,76.489,500.489,74.187Z" transform="translate(-460.258 -69.092)" fill="#fff"/>
  <path id="path19" d="M648.285,74.22a7.448,7.448,0,0,1,3.286.386,1.744,1.744,0,0,1,.3,2.8,1.975,1.975,0,0,1,1.274,1.275,1.807,1.807,0,0,1-.855,2.014c-1.223.672-2.664.359-3.991.45-.041-2.306-.015-4.613-.019-6.92m1.271.994q0,.987,0,1.973a2.49,2.49,0,0,0,1.409-.284.98.98,0,0,0-.058-1.461,2.487,2.487,0,0,0-1.348-.228m.008,2.877q-.008,1.006.01,2.014a4.384,4.384,0,0,0,1.916-.232.877.877,0,0,0,.133-1.438A3.306,3.306,0,0,0,649.563,78.091Z" transform="translate(-596.129 -69.132)" fill="#fff"/>
  <path id="path21" d="M914.443,74.156c.425,0,.851,0,1.277,0,0,.91-.008,1.82.011,2.731,1.048-.922,2.117-1.821,3.171-2.736.582,0,1.165.006,1.747,0q-1.886,1.547-3.74,3.13c1.215,1.283,2.474,2.523,3.717,3.778a16.431,16.431,0,0,1-1.73-.027q-1.484-1.514-2.951-3.042-.108.142-.213.284c-.025.931,0,1.861-.019,2.792-.428,0-.856.008-1.283.006Q914.435,77.616,914.443,74.156Z" transform="translate(-840.706 -69.067)" fill="#fff"/>
  <path id="path23" d="M142.28,155.584c2.387,0,4.773-.018,7.16.022,1.421,2.478,2.888,4.929,4.3,7.413-2.387.012-4.772,0-7.159,0C145.157,160.533,143.673,158.085,142.28,155.584Z" transform="translate(-130.807 -144.025)" fill="#fff"/>
</svg>
