<svg id="Group_617" data-name="Group 617" xmlns="http://www.w3.org/2000/svg" width="66.656" height="17.272" viewBox="0 0 66.656 17.272">
  <path id="Subtraction_20" data-name="Subtraction 20" d="M13.069,17.272H8.841a8.965,8.965,0,0,1-4.93-1.47A8.938,8.938,0,0,1,2.6,14.754a8.778,8.778,0,0,1-1.083-1.269A8.527,8.527,0,0,1,.7,12.031,8.228,8.228,0,0,1,0,8.711,9.386,9.386,0,0,1,.182,6.858,8.637,8.637,0,0,1,.7,5.178,8.287,8.287,0,0,1,2.613,2.425,8.52,8.52,0,0,1,3.93,1.4,8.837,8.837,0,0,1,5.437.637,9.236,9.236,0,0,1,7.1.163,9.728,9.728,0,0,1,8.88,0h4.151A9.766,9.766,0,0,1,16.5.637a9.553,9.553,0,0,1,1.559.761,9.173,9.173,0,0,1,1.38,1.026,8.714,8.714,0,0,1,1.154,1.267,8.346,8.346,0,0,1,.882,1.486,8.262,8.262,0,0,1,.563,1.681,8.663,8.663,0,0,1,.2,1.853,7.6,7.6,0,0,1-.2,1.717,7.948,7.948,0,0,1-.561,1.6,8.568,8.568,0,0,1-.878,1.454,9.2,9.2,0,0,1-1.149,1.269A9.672,9.672,0,0,1,16.526,16.6a9.487,9.487,0,0,1-1.685.5A9.125,9.125,0,0,1,13.069,17.272ZM8.9.714A8,8,0,0,0,.841,8.621,8,8,0,0,0,8.9,16.527a8,8,0,0,0,8.063-7.906A8,8,0,0,0,8.9.714ZM10.732,13.3V3.944a5.115,5.115,0,0,1,2.359,1.808,4.921,4.921,0,0,1,0,5.738,5.082,5.082,0,0,1-1.038,1.074,5.139,5.139,0,0,1-1.321.736Zm-3.658,0h0a5.134,5.134,0,0,1-1.321-.735,5.079,5.079,0,0,1-1.037-1.073,4.92,4.92,0,0,1,0-5.735A5.081,5.081,0,0,1,5.753,4.68a5.135,5.135,0,0,1,1.321-.736Z" fill="#fff"/>
  <g id="Group_616" data-name="Group 616" transform="translate(22.847 2.15)">
    <path id="Path_313" data-name="Path 313" d="M693.452,80.039c0-.833-.435-.778-.851-.788v-.241c.361.018.731.018,1.093.018.389,0,.917-.018,1.6-.018,2.4,0,3.7,1.6,3.7,3.243,0,.918-.537,3.224-3.816,3.224-.472,0-.908-.018-1.343-.018-.417,0-.825.009-1.241.018v-.241c.555-.056.825-.074.851-.7V80.039Zm.908,4.346h0c0,.713.51.8.964.8a2.581,2.581,0,0,0,2.659-2.891,2.784,2.784,0,0,0-2.9-2.983c-.38,0-.555.027-.723.037v5.04Z" transform="translate(-692.569 -78.399)" fill="#fff"/>
    <path id="Path_314" data-name="Path 314" d="M885.022,82.409h.176c.259,0,.445,0,.445-.307v-2.51c0-.407-.139-.464-.482-.648V78.8c.435-.131.955-.306.991-.333a.329.329,0,0,1,.167-.047c.046,0,.065.056.065.13V82.1c0,.307.2.307.463.307H887v.241c-.315,0-.64-.018-.972-.018s-.667.009-1.009.018v-.241Zm.991-5.421h0a.454.454,0,0,1,0-.909.454.454,0,0,1,.454.446A.463.463,0,0,1,886.013,76.989Z" transform="translate(-878.264 -75.571)" fill="#fff"/>
    <path id="Path_315" data-name="Path 315" d="M950.021,144.123c0-.343-.1-.435-.537-.611v-.176a12.409,12.409,0,0,0,1.222-.445c.028,0,.055.019.055.093v.6a2.717,2.717,0,0,1,1.6-.7c.786,0,1.064.575,1.064,1.3v2.39c0,.307.2.307.464.307h.167v.241c-.325,0-.649-.018-.982-.018s-.668.009-1,.018v-.241h.166c.26,0,.444,0,.444-.307v-2.4c0-.529-.323-.788-.852-.788a2.476,2.476,0,0,0-1.076.445v2.742c0,.307.2.307.465.307h.167v.241c-.324,0-.649-.019-.982-.019s-.667.009-1,.019v-.241h.167c.259,0,.444,0,.444-.307v-2.455Z" transform="translate(-940.4 -140.046)" fill="#fff"/>
    <path id="Path_316" data-name="Path 316" d="M1082.139,144.568a2.245,2.245,0,0,0,0,.538,1.548,1.548,0,0,0,1.361,1.6,1.776,1.776,0,0,0,1.251-.62l.129.13a2.173,2.173,0,0,1-1.714,1.047,1.861,1.861,0,0,1-1.77-2.02c0-1.816,1.223-2.354,1.871-2.354a1.471,1.471,0,0,1,1.566,1.454,1.069,1.069,0,0,1-.009.167l-.084.056Zm1.64-.3h0c.231,0,.258-.121.258-.231a.785.785,0,0,0-.806-.853c-.565,0-.954.416-1.065,1.084Z" transform="translate(-1067.776 -140.045)" fill="#fff"/>
    <path id="Path_317" data-name="Path 317" d="M1185.82,146.884h.25c.259,0,.444,0,.444-.307v-2.6c0-.287-.342-.343-.482-.417v-.138c.676-.288,1.047-.529,1.132-.529.055,0,.082.028.082.121v.834h.02c.231-.361.621-.955,1.185-.955a.505.505,0,0,1,.528.491.45.45,0,0,1-.435.473c-.288,0-.288-.223-.612-.223a.782.782,0,0,0-.676.769v2.177c0,.307.185.307.445.307h.518v.241c-.51-.009-.9-.019-1.3-.019-.38,0-.769.009-1.1.019v-.241Z" transform="translate(-1168.547 -140.045)" fill="#fff"/>
    <path id="Path_318" data-name="Path 318" d="M1283.246,145.837a1.221,1.221,0,0,0,1.168,1.131.655.655,0,0,0,.749-.658c0-1.093-2.019-.741-2.019-2.233a1.274,1.274,0,0,1,1.436-1.186,2.433,2.433,0,0,1,1.055.27l.066.944h-.214a.951.951,0,0,0-1.01-.917.651.651,0,0,0-.722.611c0,1.085,2.149.75,2.149,2.2,0,.611-.491,1.26-1.594,1.26a2.44,2.44,0,0,1-1.13-.315l-.1-1.066.167-.047Z" transform="translate(-1262.407 -140.046)" fill="#fff"/>
    <path id="Path_319" data-name="Path 319" d="M1443.4,76.837h-.231a1.762,1.762,0,0,0-1.982-1.519,2.641,2.641,0,0,0-2.613,2.937,3.019,3.019,0,0,0,2.761,3.216,1.884,1.884,0,0,0,1.862-1.6l.213.055-.213,1.353a5.19,5.19,0,0,1-2.048.492,3.3,3.3,0,0,1-3.538-3.484,3.406,3.406,0,0,1,3.511-3.262,6.684,6.684,0,0,1,2.186.492l.092,1.324Z" transform="translate(-1411.534 -74.548)" fill="#fff"/>
    <path id="Path_320" data-name="Path 320" d="M1612.778,68.349h.176c.26,0,.446,0,.446-.307v-5.16c0-.6-.139-.621-.492-.723v-.148a5.888,5.888,0,0,0,.954-.4.973.973,0,0,1,.2-.1c.057,0,.075.056.075.13v6.4c0,.307.2.307.463.307h.156v.241c-.313,0-.638-.019-.972-.019s-.667.009-1.01.019v-.241Z" transform="translate(-1580.581 -61.51)" fill="#fff"/>
    <path id="Path_321" data-name="Path 321" d="M1673.475,150.463c0,.167.1.177.259.177.112,0,.25-.009.371-.009v.2a9.463,9.463,0,0,0-1.334.287l-.047-.028v-.75a2.5,2.5,0,0,1-1.64.778,1,1,0,0,1-1.019-1.1v-2.373c0-.241-.037-.473-.555-.519v-.176c.334-.009,1.074-.065,1.194-.065.1,0,.1.065.1.269v2.39c0,.279,0,1.075.805,1.075a2.069,2.069,0,0,0,1.12-.564v-2.494c0-.185-.444-.286-.777-.379v-.167c.833-.056,1.352-.13,1.444-.13.075,0,.075.065.075.167v3.418Z" transform="translate(-1635.33 -143.894)" fill="#fff"/>
    <path id="Path_322" data-name="Path 322" d="M1801.65,65.022a2.339,2.339,0,0,1,1.38-.667,1.8,1.8,0,0,1,1.723,1.946,2.34,2.34,0,0,1-2.215,2.428,2.736,2.736,0,0,1-1.287-.324l-.278.213-.194-.1a10.979,10.979,0,0,0,.129-1.649V62.882c0-.6-.14-.621-.491-.723v-.148a5.851,5.851,0,0,0,.955-.4.955.955,0,0,1,.2-.1c.055,0,.074.056.074.13v3.382h0Zm0,2.52h0a1,1,0,0,0,.954.946c.991,0,1.408-.973,1.408-1.8a1.767,1.767,0,0,0-1.482-1.834,1.425,1.425,0,0,0-.88.436v2.25Z" transform="translate(-1761.661 -61.51)" fill="#fff"/>
    <path id="Path_323" data-name="Path 323" d="M692.3,325.187h.071c.181,0,.373-.024.373-.287v-2.641c0-.263-.192-.288-.373-.288H692.3v-.151c.2,0,.5.02.747.02s.554-.02.791-.02v.151h-.071c-.181,0-.373.025-.373.288V324.9c0,.263.192.287.373.287h.071v.152c-.242,0-.545-.02-.8-.02s-.544.02-.741.02v-.152Z" transform="translate(-692.277 -312.721)" fill="#fff"/>
    <path id="Path_324" data-name="Path 324" d="M693.243,324.743c-.244,0-.546-.02-.8-.02s-.543.02-.741.02h-.022v-.2h.092c.183,0,.349-.019.351-.265v-2.641c0-.246-.168-.263-.351-.266h-.092v-.2h.022c.2,0,.5.02.747.02s.553-.02.791-.02h.022v.2h-.093c-.183,0-.35.02-.351.266v2.641c0,.246.168.261.351.265h.093v.2Zm-.022-.043h0v-.108h-.049c-.18,0-.394-.031-.4-.31v-2.641c0-.279.215-.31.4-.31h.049v-.107c-.233,0-.525.02-.769.02s-.529-.018-.724-.02v.107h.048c.18,0,.395.031.395.31v2.641c0,.279-.215.31-.395.31h-.048v.108c.2,0,.48-.02.719-.02s.537.019.775.02Z" transform="translate(-691.684 -312.103)" fill="#fff"/>
    <path id="Path_325" data-name="Path 325" d="M745.034,324.345l.01-.01v-1.89a.416.416,0,0,0-.439-.474h-.111v-.151c.237,0,.469.02.706.02.207,0,.414-.02.62-.02v.151h-.076c-.212,0-.449.04-.449.64V324.9a3.35,3.35,0,0,0,.03.509h-.192l-2.6-2.894V324.6c0,.439.085.589.474.589h.085v.152c-.216,0-.433-.02-.65-.02s-.458.02-.685.02v-.152h.071c.348,0,.453-.236.453-.639v-2.124a.452.452,0,0,0-.458-.453h-.066v-.151c.192,0,.388.02.579.02.151,0,.3-.02.449-.02l2.244,2.525Z" transform="translate(-740.011 -312.72)" fill="#fff"/>
    <path id="Path_326" data-name="Path 326" d="M744.7,324.839l-.208-.008-2.558-2.851V324c.006.438.073.563.452.568h.108v.2h-.022c-.218,0-.435-.02-.65-.02s-.457.02-.686.02h-.022v-.2h.093c.333,0,.428-.216.432-.618v-2.123a.432.432,0,0,0-.437-.432h-.088V321.2h.022c.193,0,.39.019.579.019.15,0,.3-.019.466-.012L744.4,323.7v-1.854c0-.4-.27-.45-.417-.453h-.134V321.2h.022c.238,0,.47.019.706.019.205,0,.412-.019.62-.019h.022v.194h-.1c-.208.006-.422.024-.427.619v2.294a3.316,3.316,0,0,0,.03.505l.005.026Zm-.192-.044h.167a3.364,3.364,0,0,1-.026-.487v-2.294c0-.605.253-.662.47-.662h.053v-.107c-.2,0-.4.02-.6.02-.231,0-.455-.018-.683-.02v.107h.089a.441.441,0,0,1,.461.5l-.007,1.905-.01.01-.017.016-2.242-2.535c-.15,0-.3.02-.449.02-.185,0-.374-.018-.557-.02v.107h.045a.474.474,0,0,1,.479.476v2.123c0,.4-.112.661-.475.662h-.049v.109c.219,0,.443-.02.663-.02s.42.018.628.02v-.107h-.064c-.4,0-.5-.174-.5-.612v-2.134l2.618,2.928Zm-.1-1.047h0l.016-.015Zm-.012-.01h0v0l0,0Z" transform="translate(-739.388 -312.123)" fill="#fff"/>
    <path id="Path_327" data-name="Path 327" d="M862.339,317.749c-.379,0-.393.091-.468.459h-.151c.02-.141.045-.282.06-.429a2.987,2.987,0,0,0,.03-.428h.121c.041.151.166.146.3.146h2.6c.136,0,.262,0,.273-.157l.12.02c-.02.136-.04.272-.055.409s-.009.272-.009.408l-.152.056c-.01-.186-.036-.485-.373-.485h-.827v2.682c0,.389.177.433.418.433h.1v.152c-.2,0-.55-.02-.821-.02-.3,0-.656.02-.853.02v-.152h.1c.278,0,.418-.025.418-.423v-2.693Z" transform="translate(-855.775 -308.398)" fill="#fff"/>
    <path id="Path_328" data-name="Path 328" d="M863.632,320.332c-.2,0-.551-.02-.822-.02-.3,0-.655.02-.852.02h-.021v-.2h.117c.278-.007.39-.01.4-.4v-2.671h-.8v-.044h.848v2.715c0,.4-.163.445-.44.446h-.074v.106c.2,0,.538-.019.831-.019.263,0,.6.018.8.019v-.106h-.074c-.244,0-.44-.06-.44-.456v-2.7h.849c.338,0,.382.289.394.476l.109-.04c0-.131,0-.263.01-.4s.033-.258.052-.387l-.077-.013c-.023.147-.165.154-.292.153h-2.626c-.119,0-.248-.006-.293-.146h-.083a2.99,2.99,0,0,1-.03.409c-.015.138-.038.272-.057.4h.108c.066-.351.11-.465.486-.46v.044c-.373.007-.365.07-.447.442l0,.017H861l0-.026c.02-.141.046-.282.061-.429a2.846,2.846,0,0,0,.031-.424v-.022h.16l0,.016c.035.127.128.128.256.13h2.626c.141,0,.243,0,.251-.136l0-.024.023,0,.142.022,0,.022c-.02.135-.04.271-.055.407s-.01.271-.01.407v.016l-.014.006-.179.065v-.029c-.013-.189-.033-.464-.352-.464h-.8v2.66c0,.38.156.407.4.411h.118v.2Z" transform="translate(-855.082 -307.692)" fill="#fff"/>
    <path id="Path_329" data-name="Path 329" d="M966.691,325.187h.071c.181,0,.373-.024.373-.287v-2.641c0-.263-.192-.288-.373-.288h-.071v-.151c.307,0,.832.02,1.254.02s.948-.02,1.29-.02c-.008.216,0,.55.011.771l-.152.04c-.024-.327-.085-.589-.614-.589h-.7v1.32h.6c.3,0,.368-.171.4-.444h.151q-.014.3-.015.59t.015.575l-.151.03c-.03-.3-.045-.5-.393-.5h-.6v1.174c0,.328.291.328.614.328.605,0,.872-.041,1.023-.615l.141.035c-.066.268-.126.534-.171.8-.323,0-.9-.02-1.356-.02s-1.054.02-1.341.02v-.152Z" transform="translate(-957.078 -312.721)" fill="#fff"/>
    <path id="Path_330" data-name="Path 330" d="M968.8,324.763c-.324,0-.9-.021-1.356-.021s-1.053.021-1.341.021h-.021v-.2h.092c.183,0,.349-.019.351-.265v-2.641c0-.246-.168-.263-.351-.266h-.092V321.2h.021c.308,0,.832.019,1.255.019s.947-.019,1.29-.019h.023v.022c0,.076,0,.165,0,.26,0,.174,0,.365.015.509v.018l-.017,0-.177.046v-.026c-.03-.327-.073-.565-.592-.569h-.679v1.276h.579c.29,0,.342-.151.376-.423l0-.02h.193v.023c-.01.2-.016.393-.016.589s.006.382.016.574v.018l-.018,0-.175.035,0-.024c-.035-.308-.037-.476-.372-.48h-.583v1.153c0,.306.265.3.593.306.607,0,.85-.033,1-.6l0-.02.021,0,.162.042-.005.021c-.065.267-.125.533-.171.8l0,.018Zm-.019-.044h0c.044-.254.1-.509.163-.763l-.1-.025c-.151.564-.443.615-1.038.611-.317,0-.635,0-.637-.35V323h.626c.352,0,.388.209.413.5l.109-.023c-.01-.186-.014-.372-.014-.557s0-.379.014-.568h-.109c-.028.262-.11.447-.417.444h-.622v-1.365h.723c.524,0,.611.267.634.584l.109-.029c-.009-.142-.015-.325-.015-.493,0-.086,0-.168,0-.239-.343,0-.853.02-1.268.02s-.924-.018-1.233-.02v.107h.049c.18,0,.394.031.4.31V324.3c0,.278-.215.309-.4.31h-.049v.106c.294,0,.876-.019,1.319-.019s1.012.019,1.337.019Z" transform="translate(-956.489 -312.124)" fill="#fff"/>
    <path id="Path_331" data-name="Path 331" d="M1055.809,322.344c0-.368-.2-.383-.358-.383h-.091v-.152c.161,0,.474.02.781.02s.545-.02.811-.02c.635,0,1.2.172,1.2.888a.952.952,0,0,1-.7.887l.862,1.29a.558.558,0,0,0,.489.3v.152c-.166,0-.328-.02-.494-.02s-.318.02-.474.02a14.108,14.108,0,0,1-1.049-1.634h-.332v1.079c0,.389.181.4.412.4h.091v.152c-.288,0-.579-.02-.867-.02-.242,0-.479.02-.731.02v-.152h.091c.187,0,.358-.085.358-.272v-2.562Zm.646,1.17h.246c.5,0,.776-.191.776-.786a.688.688,0,0,0-.736-.736,2.561,2.561,0,0,0-.286.02Z" transform="translate(-1042.648 -312.711)" fill="#fff"/>
    <path id="Path_332" data-name="Path 332" d="M1058.193,324.746c-.169,0-.329-.02-.495-.02s-.315.02-.49.012a14.069,14.069,0,0,1-1.044-1.625h-.3v1.056c.005.379.158.376.391.382h.113v.2h-.022c-.288,0-.581-.02-.867-.02-.241,0-.477.02-.73.02h-.022v-.2h.113c.182,0,.335-.08.336-.25V321.74c0-.358-.179-.356-.336-.361h-.113v-.2h.022c.163,0,.474.02.781.02s.543-.02.812-.02c.635,0,1.22.177,1.222.909a.966.966,0,0,1-.69.9l.847,1.268a.541.541,0,0,0,.474.293l.018,0v.192Zm-2.349-1.677h.344l.006.011a15.723,15.723,0,0,0,1.031,1.623c.154,0,.316-.021.473-.021s.316.017.473.02v-.11a.576.576,0,0,1-.485-.309l-.877-1.313.025-.01a.928.928,0,0,0,.687-.868c0-.7-.544-.862-1.177-.864-.266,0-.508.02-.812.02s-.595-.018-.76-.02v.107h.069c.157,0,.38.026.38.405V324.3c0,.2-.19.295-.38.3h-.069v.106c.243,0,.472-.02.709-.02.282,0,.566.019.845.02V324.6h-.069c-.23,0-.435-.029-.435-.427v-1.1h.022Zm0-.138h-.022v-1.544l.019,0a2.476,2.476,0,0,1,.289-.02.712.712,0,0,1,.759.758c0,.6-.29.806-.8.807Zm.247-.043h0c.5,0,.75-.178.755-.763a.668.668,0,0,0-.716-.716,2.13,2.13,0,0,0-.265.018v1.461Z" transform="translate(-1042.038 -312.106)" fill="#fff"/>
    <path id="Path_333" data-name="Path 333" d="M1161.442,324.345l.009-.01v-1.89a.415.415,0,0,0-.438-.474h-.11v-.151c.237,0,.468.02.705.02.207,0,.413-.02.621-.02v.151h-.076c-.212,0-.449.04-.449.64V324.9a3.327,3.327,0,0,0,.03.509h-.191l-2.6-2.894V324.6c0,.439.086.589.474.589h.086v.152c-.216,0-.433-.02-.65-.02s-.459.02-.686.02v-.152h.07c.348,0,.454-.236.454-.639v-2.124a.452.452,0,0,0-.458-.453h-.066v-.151c.191,0,.388.02.579.02.15,0,.3-.02.448-.02l2.243,2.525Z" transform="translate(-1141.865 -312.72)" fill="#fff"/>
    <path id="Path_334" data-name="Path 334" d="M1161.107,324.819l-.208-.007-2.558-2.852v2.02c.006.439.072.563.453.568h.107v.2h-.022c-.218,0-.434-.021-.65-.021s-.458.021-.685.021h-.023v-.2h.093c.333,0,.428-.216.431-.619v-2.122a.43.43,0,0,0-.435-.432h-.089v-.2h.023c.192,0,.389.02.579.02.148,0,.294-.02.464-.013l2.216,2.5v-1.855c0-.4-.27-.45-.416-.452h-.133v-.2h.022c.239,0,.47.02.706.02.205,0,.412-.02.62-.02h.022v.2h-.1c-.208.006-.422.024-.427.619v2.294a3.211,3.211,0,0,0,.03.506l0,.024Zm-.191-.044h.166a3.47,3.47,0,0,1-.027-.487v-2.294c0-.605.256-.661.472-.663h.053v-.107c-.2,0-.4.02-.6.02-.231,0-.456-.018-.684-.02v.107h.089a.442.442,0,0,1,.461.5l-.007,1.906-.01.01-.015.016-2.243-2.535c-.15,0-.3.02-.448.02-.187,0-.375-.018-.558-.02v.107h.045a.475.475,0,0,1,.479.476v2.122c0,.4-.114.662-.475.664h-.049v.107c.218,0,.443-.019.664-.019s.421.018.629.019v-.106h-.064c-.4,0-.5-.174-.5-.613v-2.133l2.619,2.927Zm-.1-1.047h0l.015-.014Zm-.013-.009h0v0l0,0Z" transform="translate(-1141.238 -312.104)" fill="#fff"/>
    <path id="Path_335" data-name="Path 335" d="M1274.484,321.125a2.016,2.016,0,0,0-.112.393c0,.152.212.176.378.176h.056v.152c-.2-.011-.408-.02-.611-.02-.181,0-.362.009-.544.02v-.152h.03a.455.455,0,0,0,.438-.328l.807-2.313a4.26,4.26,0,0,0,.187-.626,2.569,2.569,0,0,0,.458-.216.114.114,0,0,1,.04-.01.035.035,0,0,1,.036.016c.015.04.029.086.045.126l.927,2.637c.06.176.12.363.186.514a.321.321,0,0,0,.334.2h.03v.152c-.227-.011-.454-.02-.7-.02s-.5.009-.757.02v-.152h.056c.115,0,.313-.02.313-.146a1.617,1.617,0,0,0-.1-.363l-.2-.585h-1.144l-.161.525Zm.735-2.234h-.01l-.469,1.427h.942Z" transform="translate(-1253.309 -309.227)" fill="#fff"/>
    <path id="Path_336" data-name="Path 336" d="M1276.56,321.26c-.227-.01-.454-.021-.694-.021s-.5.01-.756.021h-.023v-.2h.078c.117,0,.29-.027.29-.123a1.585,1.585,0,0,0-.1-.356l-.192-.57h-1.112l-.157.509a2.135,2.135,0,0,0-.111.387c0,.123.19.153.357.153h.078v.2h-.023c-.2-.01-.408-.021-.609-.021-.181,0-.363.01-.543.021h-.023v-.2h.052a.432.432,0,0,0,.417-.312l.807-2.314a5.848,5.848,0,0,0,.2-.639,2.561,2.561,0,0,0,.458-.216.14.14,0,0,1,.049-.012.062.062,0,0,1,.055.029c.014.042.03.086.045.127l.928,2.637c.059.177.12.363.185.512a.3.3,0,0,0,.313.188h.051v.2l-.023,0Zm-1.429-.045h0c.25-.009.494-.019.735-.019s.453.01.672.019v-.105h-.007a.343.343,0,0,1-.354-.215c-.066-.153-.127-.34-.186-.517l-.928-2.636c-.015-.04-.03-.086-.043-.122,0,0,0,0-.007,0H1275a.107.107,0,0,0-.029.007,1.876,1.876,0,0,1-.449.2,4.179,4.179,0,0,1-.187.629l-.807,2.314a.48.48,0,0,1-.459.343h-.008v.105c.173-.009.347-.019.523-.019.195,0,.394.01.586.019v-.105h-.032c-.164,0-.393-.021-.4-.2a1.98,1.98,0,0,1,.111-.4l.022.007-.022-.007.166-.539h1.175l.2.6a1.511,1.511,0,0,1,.1.37c-.007.155-.22.166-.334.169h-.034v.105Zm-1.031-1.482h0l.483-1.471h.027v.022h0v-.022h.015l.479,1.471Zm.061-.044h.882l-.439-1.351Zm.427-1.4h0l.011,0Z" transform="translate(-1252.7 -308.621)" fill="#fff"/>
    <path id="Path_337" data-name="Path 337" d="M1363.519,317.749c-.378,0-.393.091-.469.459h-.151c.02-.141.045-.282.061-.429a2.987,2.987,0,0,0,.029-.428h.122c.04.151.167.146.3.146h2.6c.135,0,.261,0,.272-.157l.121.02c-.019.136-.039.272-.055.409s-.011.272-.011.408l-.151.056c-.01-.186-.035-.485-.373-.485h-.827v2.682c0,.389.177.433.418.433h.1v.152c-.2,0-.549-.02-.821-.02-.3,0-.656.02-.852.02v-.152h.1c.278,0,.419-.025.419-.423v-2.693Z" transform="translate(-1339.436 -308.398)" fill="#fff"/>
    <path id="Path_338" data-name="Path 338" d="M1364.8,320.333c-.2,0-.551-.02-.822-.02-.3,0-.654.02-.852.02h-.022v-.2h.118c.278-.007.39-.01.4-.4v-2.671h-.8v-.044h.848v2.715c0,.4-.163.444-.44.445h-.074v.108c.2,0,.538-.02.83-.02.263,0,.6.018.8.02v-.108h-.074c-.242,0-.439-.059-.439-.456v-2.7h.849c.338,0,.383.289.392.476l.11-.04c0-.131,0-.263.01-.4s.033-.259.052-.388l-.076-.013c-.023.147-.165.155-.291.153h-2.627c-.119,0-.247-.006-.293-.147h-.083a3.016,3.016,0,0,1-.031.41c-.013.139-.038.272-.057.4h.108c.067-.351.11-.465.487-.46v.044c-.374.006-.365.07-.448.442l0,.017h-.194l0-.025c.021-.142.046-.283.061-.429a2.9,2.9,0,0,0,.031-.425v-.022h.159l0,.016c.035.127.127.128.256.13h2.627c.139,0,.241,0,.25-.136v-.024l.024,0,.143.022,0,.022c-.021.135-.04.271-.055.407s-.01.271-.01.406v.016l-.014.006-.179.065v-.029c-.013-.189-.033-.464-.351-.464h-.8v2.66c.005.38.156.406.4.411h.118v.2Z" transform="translate(-1338.73 -307.693)" fill="#fff"/>
    <path id="Path_339" data-name="Path 339" d="M1468.59,325.187h.071c.182,0,.373-.024.373-.287v-2.641c0-.263-.191-.288-.373-.288h-.071v-.151c.2,0,.5.02.745.02s.555-.02.792-.02v.151h-.071c-.181,0-.374.025-.374.288V324.9c0,.263.192.287.374.287h.071v.152c-.242,0-.545-.02-.8-.02s-.545.02-.742.02Z" transform="translate(-1441.433 -312.721)" fill="#fff"/>
    <path id="Path_340" data-name="Path 340" d="M1469.521,324.763c-.244,0-.545-.021-.8-.021s-.544.021-.741.021h-.022v-.2h.093c.182,0,.349-.018.35-.265v-2.641c0-.246-.168-.263-.35-.266h-.093V321.2h.022c.2,0,.5.019.745.019s.554-.019.792-.019h.021v.194h-.092c-.184,0-.349.02-.352.266V324.3c0,.247.168.262.352.265h.092v.2Zm-.023-.044h0v-.107h-.048c-.181,0-.395-.032-.395-.31v-2.641c0-.279.214-.31.395-.31h.048v-.107c-.233,0-.524.02-.77.02s-.528-.018-.723-.02v.107h.048c.179,0,.394.031.395.31V324.3c0,.278-.215.31-.395.31h-.048v.107c.194,0,.48-.019.719-.019s.536.018.774.019Z" transform="translate(-1440.826 -312.124)" fill="#fff"/>
    <path id="Path_341" data-name="Path 341" d="M1518.76,319.66a1.768,1.768,0,0,1,1.931,1.74,1.849,1.849,0,0,1-1.9,1.931,1.781,1.781,0,0,1-1.885-1.81,1.833,1.833,0,0,1,1.859-1.86Zm.076,3.448h0c.978,0,1.148-.863,1.148-1.6s-.4-1.629-1.234-1.629c-.882,0-1.144.786-1.144,1.461,0,.9.413,1.765,1.23,1.765Z" transform="translate(-1488.056 -310.636)" fill="#fff"/>
    <path id="Path_342" data-name="Path 342" d="M1516.25,320.912a1.859,1.859,0,0,1,1.882-1.882v.043a1.813,1.813,0,0,0-1.839,1.839,1.761,1.761,0,0,0,1.865,1.787,1.828,1.828,0,0,0,1.884-1.909,1.748,1.748,0,0,0-1.91-1.717v-.043a1.792,1.792,0,0,1,1.953,1.761,1.874,1.874,0,0,1-1.927,1.953,1.807,1.807,0,0,1-1.908-1.831Zm.706-.177h0c0-.678.266-1.484,1.166-1.484.856,0,1.255.911,1.257,1.652s-.174,1.619-1.171,1.619v-.043c.958,0,1.125-.841,1.127-1.576s-.394-1.606-1.213-1.607c-.865,0-1.121.768-1.122,1.439,0,.9.41,1.741,1.208,1.743v.043c-.837,0-1.251-.878-1.252-1.786Z" transform="translate(-1487.427 -310.028)" fill="#fff"/>
    <path id="Path_343" data-name="Path 343" d="M1632.182,324.345l.01-.01v-1.89a.416.416,0,0,0-.439-.474h-.109v-.151c.236,0,.468.02.7.02.207,0,.414-.02.621-.02v.151h-.076c-.211,0-.448.04-.448.64V324.9a3.249,3.249,0,0,0,.03.509h-.191l-2.6-2.894V324.6c0,.439.085.589.473.589h.086v.152c-.217,0-.433-.02-.65-.02s-.459.02-.686.02v-.152h.071c.349,0,.453-.236.453-.639v-2.124a.451.451,0,0,0-.458-.453h-.066v-.151c.192,0,.388.02.58.02.151,0,.3-.02.449-.02l2.243,2.525Z" transform="translate(-1596.149 -312.72)" fill="#fff"/>
    <path id="Path_344" data-name="Path 344" d="M1631.884,324.839l-.209-.007-2.558-2.851V324c.005.438.072.562.451.567h.109v.2h-.022c-.219,0-.435-.02-.65-.02s-.458.02-.687.02h-.021v-.2h.092c.333,0,.428-.215.432-.617v-2.124a.431.431,0,0,0-.437-.432h-.087V321.2h.021c.193,0,.39.019.58.019.15,0,.3-.019.466-.012l2.215,2.494v-1.854c0-.4-.27-.45-.417-.453h-.132V321.2h.023c.237,0,.47.019.7.019.207,0,.413-.019.622-.019h.021v.194h-.1c-.207.006-.422.025-.426.619v2.294a3.315,3.315,0,0,0,.028.506l0,.024h-.024Zm-.192-.044h.165a3.475,3.475,0,0,1-.026-.487v-2.294c0-.606.254-.661.47-.663h.054v-.107c-.2,0-.4.02-.6.02-.229,0-.455-.018-.683-.02v.107h.088a.442.442,0,0,1,.46.5l-.006,1.905-.01.011-.016.016-2.243-2.535c-.149,0-.3.02-.449.02-.186,0-.375-.018-.558-.02v.107h.044a.476.476,0,0,1,.48.476v2.124c0,.4-.112.661-.475.662h-.05v.107c.219,0,.443-.019.665-.019s.419.018.628.019v-.106h-.065c-.4,0-.495-.174-.495-.612v-2.134l2.618,2.928Zm-.1-1.047h0l.016-.014Zm-.012-.009h0v0l0,0Z" transform="translate(-1595.559 -312.124)" fill="#fff"/>
    <path id="Path_345" data-name="Path 345" d="M1745.26,321.125a2.119,2.119,0,0,0-.11.393c0,.152.212.176.378.176h.056v.152c-.2-.011-.409-.02-.61-.02-.182,0-.363.009-.543.02v-.152h.029a.456.456,0,0,0,.439-.328l.807-2.313a4.164,4.164,0,0,0,.186-.626,2.6,2.6,0,0,0,.46-.216.108.108,0,0,1,.04-.01c.015,0,.024,0,.035.016.015.04.031.086.046.126l.927,2.637c.06.176.121.363.187.514a.32.32,0,0,0,.332.2h.031v.152c-.227-.011-.454-.02-.7-.02s-.5.009-.756.02v-.152h.056c.115,0,.313-.02.313-.146a1.631,1.631,0,0,0-.1-.363l-.2-.585h-1.144l-.162.525Zm.737-2.234h-.01l-.469,1.427h.943Z" transform="translate(-1707.631 -309.227)" fill="#fff"/>
    <path id="Path_346" data-name="Path 346" d="M1747.337,321.281c-.227-.009-.453-.02-.694-.02s-.5.011-.755.02h-.022v-.2h.077c.117,0,.291-.027.292-.124a1.619,1.619,0,0,0-.1-.356l-.192-.57h-1.113l-.156.509a2.124,2.124,0,0,0-.109.387c0,.124.189.155.356.155H1745v.2h-.022c-.2-.009-.408-.02-.609-.02-.181,0-.362.011-.543.02h-.022v-.2h.051a.436.436,0,0,0,.419-.313l.807-2.314a6.641,6.641,0,0,0,.2-.639,2.69,2.69,0,0,0,.459-.217.13.13,0,0,1,.047-.01.057.057,0,0,1,.055.029c.015.04.03.085.047.126l.927,2.637c.06.177.121.363.186.513a.3.3,0,0,0,.312.188h.053v.2Zm-1.429-.044h0c.249-.009.495-.019.734-.019s.454.01.674.019v-.105h-.008a.344.344,0,0,1-.353-.215c-.066-.153-.127-.34-.187-.516l-.928-2.637c-.015-.04-.03-.086-.043-.12,0-.006,0-.006-.008-.006h-.01a.094.094,0,0,0-.028.007,1.936,1.936,0,0,1-.449.2,4.281,4.281,0,0,1-.188.629l-.807,2.314a.48.48,0,0,1-.459.343h-.007v.105c.173-.009.347-.019.522-.019.2,0,.394.01.588.019v-.105h-.034c-.164,0-.394-.02-.4-.2a2.108,2.108,0,0,1,.112-.4l.021.007-.021-.007.166-.539h1.175l.2.6a1.563,1.563,0,0,1,.1.37c-.007.155-.219.166-.334.169h-.033v.106Zm-1.03-1.483h0l.483-1.47h.026v.022h0v-.022h.016l.476,1.47Zm.06-.043h.882l-.438-1.35-.443,1.35Zm.428-1.4h0l.01,0Z" transform="translate(-1707.022 -308.641)" fill="#fff"/>
    <path id="Path_347" data-name="Path 347" d="M1851.206,324.845c0,.2.14.262.3.282a3.66,3.66,0,0,0,.666-.01.721.721,0,0,0,.483-.272,1.136,1.136,0,0,0,.156-.363h.146c-.055.287-.126.57-.187.857-.443,0-.887-.02-1.33-.02s-.887.02-1.331.02v-.152h.069c.183,0,.38-.024.38-.337v-2.591c0-.263-.2-.288-.38-.288h-.069v-.151c.266,0,.529.02.8.02s.51-.02.767-.02v.151h-.127c-.191,0-.341.006-.341.272v2.6Z" transform="translate(-1809.619 -312.721)" fill="#fff"/>
    <path id="Path_348" data-name="Path 348" d="M1852.153,324.764c-.444,0-.888-.02-1.33-.02s-.887.02-1.332.02h-.021v-.2h.091c.183,0,.355-.017.358-.316v-2.592c0-.245-.174-.262-.358-.265h-.091V321.2h.021c.268,0,.531.019.8.019s.508-.019.766-.019h.021v.194h-.147c-.2.006-.317,0-.321.251v2.6c0,.188.125.238.282.26.089.006.182.01.28.01a3.577,3.577,0,0,0,.382-.02.7.7,0,0,0,.469-.263,1.123,1.123,0,0,0,.152-.356l0-.017h.19l0,.027c-.057.288-.126.57-.187.857l0,.017h-.017Zm-.018-.044h0c.058-.273.124-.541.179-.813h-.1a1.157,1.157,0,0,1-.156.355.747.747,0,0,1-.5.281,3.783,3.783,0,0,1-.386.021c-.1,0-.192,0-.284-.011-.164-.018-.323-.088-.322-.3v-2.6c0-.28.177-.294.365-.294h.1v-.107c-.248,0-.493.02-.744.02s-.516-.018-.775-.02v.107h.048c.18,0,.4.031.4.309v2.592c0,.326-.219.36-.4.36h-.048v.107c.436,0,.872-.019,1.31-.019s.876.019,1.312.019Z" transform="translate(-1809 -312.124)" fill="#fff"/>
    <path id="Path_349" data-name="Path 349" d="M1915.16,317.72a.531.531,0,1,1-.531.533A.522.522,0,0,1,1915.16,317.72Zm0,.963h0a.432.432,0,1,0-.421-.43A.428.428,0,0,0,1915.16,318.683Zm-.264-.151h0v-.026c.065-.009.077-.007.077-.047v-.393c0-.055-.006-.074-.075-.071v-.027h.272c.094,0,.179.044.179.141a.167.167,0,0,1-.125.16l.087.122a.543.543,0,0,0,.117.125v.017h-.1c-.05,0-.093-.1-.191-.245h-.059v.177c0,.035.012.033.078.042v.026h-.256Zm.179-.28h.063c.069,0,.1-.052.1-.136a.1.1,0,0,0-.1-.114h-.059Z" transform="translate(-1871.881 -308.764)" fill="#fff"/>
    <path id="Path_352" data-name="Path 352" d="M693.452,80.039c0-.833-.435-.778-.851-.788v-.241c.361.018.731.018,1.093.018.389,0,.917-.018,1.6-.018,2.4,0,3.7,1.6,3.7,3.243,0,.918-.537,3.224-3.816,3.224-.472,0-.908-.018-1.343-.018-.417,0-.825.009-1.241.018v-.241c.555-.056.825-.074.851-.7V80.039Zm.908,4.346h0c0,.713.51.8.964.8a2.581,2.581,0,0,0,2.659-2.891,2.784,2.784,0,0,0-2.9-2.983c-.38,0-.555.027-.723.037v5.04Z" transform="translate(-692.569 -78.399)" fill="#fff"/>
    <path id="Path_353" data-name="Path 353" d="M885.022,82.409h.176c.259,0,.445,0,.445-.307v-2.51c0-.407-.139-.464-.482-.648V78.8c.435-.131.955-.306.991-.333a.329.329,0,0,1,.167-.047c.046,0,.065.056.065.13V82.1c0,.307.2.307.463.307H887v.241c-.315,0-.64-.018-.972-.018s-.667.009-1.009.018v-.241Zm.991-5.421h0a.454.454,0,0,1,0-.909.454.454,0,0,1,.454.446A.463.463,0,0,1,886.013,76.989Z" transform="translate(-878.264 -75.571)" fill="#fff"/>
    <path id="Path_354" data-name="Path 354" d="M950.021,144.123c0-.343-.1-.435-.537-.611v-.176a12.409,12.409,0,0,0,1.222-.445c.028,0,.055.019.055.093v.6a2.717,2.717,0,0,1,1.6-.7c.786,0,1.064.575,1.064,1.3v2.39c0,.307.2.307.464.307h.167v.241c-.325,0-.649-.018-.982-.018s-.668.009-1,.018v-.241h.166c.26,0,.444,0,.444-.307v-2.4c0-.529-.323-.788-.852-.788a2.476,2.476,0,0,0-1.076.445v2.742c0,.307.2.307.465.307h.167v.241c-.324,0-.649-.019-.982-.019s-.667.009-1,.019v-.241h.167c.259,0,.444,0,.444-.307v-2.455Z" transform="translate(-940.4 -140.046)" fill="#fff"/>
    <path id="Path_355" data-name="Path 355" d="M1082.139,144.568a2.245,2.245,0,0,0,0,.538,1.548,1.548,0,0,0,1.361,1.6,1.776,1.776,0,0,0,1.251-.62l.129.13a2.173,2.173,0,0,1-1.714,1.047,1.861,1.861,0,0,1-1.77-2.02c0-1.816,1.223-2.354,1.871-2.354a1.471,1.471,0,0,1,1.566,1.454,1.069,1.069,0,0,1-.009.167l-.084.056Zm1.64-.3h0c.231,0,.258-.121.258-.231a.785.785,0,0,0-.806-.853c-.565,0-.954.416-1.065,1.084Z" transform="translate(-1067.776 -140.045)" fill="#fff"/>
    <path id="Path_356" data-name="Path 356" d="M1185.82,146.884h.25c.259,0,.444,0,.444-.307v-2.6c0-.287-.342-.343-.482-.417v-.138c.676-.288,1.047-.529,1.132-.529.055,0,.082.028.082.121v.834h.02c.231-.361.621-.955,1.185-.955a.505.505,0,0,1,.528.491.45.45,0,0,1-.435.473c-.288,0-.288-.223-.612-.223a.782.782,0,0,0-.676.769v2.177c0,.307.185.307.445.307h.518v.241c-.51-.009-.9-.019-1.3-.019-.38,0-.769.009-1.1.019v-.241Z" transform="translate(-1168.547 -140.045)" fill="#fff"/>
    <path id="Path_357" data-name="Path 357" d="M1283.246,145.837a1.221,1.221,0,0,0,1.168,1.131.655.655,0,0,0,.749-.658c0-1.093-2.019-.741-2.019-2.233a1.274,1.274,0,0,1,1.436-1.186,2.433,2.433,0,0,1,1.055.27l.066.944h-.214a.951.951,0,0,0-1.01-.917.651.651,0,0,0-.722.611c0,1.085,2.149.75,2.149,2.2,0,.611-.491,1.26-1.594,1.26a2.44,2.44,0,0,1-1.13-.315l-.1-1.066.167-.047Z" transform="translate(-1262.407 -140.046)" fill="#fff"/>
    <path id="Path_358" data-name="Path 358" d="M1443.4,76.837h-.231a1.762,1.762,0,0,0-1.982-1.519,2.641,2.641,0,0,0-2.613,2.937,3.019,3.019,0,0,0,2.761,3.216,1.884,1.884,0,0,0,1.862-1.6l.213.055-.213,1.353a5.19,5.19,0,0,1-2.048.492,3.3,3.3,0,0,1-3.538-3.484,3.406,3.406,0,0,1,3.511-3.262,6.684,6.684,0,0,1,2.186.492l.092,1.324Z" transform="translate(-1411.534 -74.548)" fill="#fff"/>
    <path id="Path_359" data-name="Path 359" d="M1612.778,68.349h.176c.26,0,.446,0,.446-.307v-5.16c0-.6-.139-.621-.492-.723v-.148a5.888,5.888,0,0,0,.954-.4.973.973,0,0,1,.2-.1c.057,0,.075.056.075.13v6.4c0,.307.2.307.463.307h.156v.241c-.313,0-.638-.019-.972-.019s-.667.009-1.01.019v-.241Z" transform="translate(-1580.581 -61.51)" fill="#fff"/>
    <path id="Path_360" data-name="Path 360" d="M1673.475,150.463c0,.167.1.177.259.177.112,0,.25-.009.371-.009v.2a9.463,9.463,0,0,0-1.334.287l-.047-.028v-.75a2.5,2.5,0,0,1-1.64.778,1,1,0,0,1-1.019-1.1v-2.373c0-.241-.037-.473-.555-.519v-.176c.334-.009,1.074-.065,1.194-.065.1,0,.1.065.1.269v2.39c0,.279,0,1.075.805,1.075a2.069,2.069,0,0,0,1.12-.564v-2.494c0-.185-.444-.286-.777-.379v-.167c.833-.056,1.352-.13,1.444-.13.075,0,.075.065.075.167v3.418Z" transform="translate(-1635.33 -143.894)" fill="#fff"/>
    <path id="Path_361" data-name="Path 361" d="M1801.65,65.022a2.339,2.339,0,0,1,1.38-.667,1.8,1.8,0,0,1,1.723,1.946,2.34,2.34,0,0,1-2.215,2.428,2.736,2.736,0,0,1-1.287-.324l-.278.213-.194-.1a10.979,10.979,0,0,0,.129-1.649V62.882c0-.6-.14-.621-.491-.723v-.148a5.851,5.851,0,0,0,.955-.4.955.955,0,0,1,.2-.1c.055,0,.074.056.074.13v3.382h0Zm0,2.52h0a1,1,0,0,0,.954.946c.991,0,1.408-.973,1.408-1.8a1.767,1.767,0,0,0-1.482-1.834,1.425,1.425,0,0,0-.88.436v2.25Z" transform="translate(-1761.661 -61.51)" fill="#fff"/>
    <path id="Path_362" data-name="Path 362" d="M692.3,325.187h.071c.181,0,.373-.024.373-.287v-2.641c0-.263-.192-.288-.373-.288H692.3v-.151c.2,0,.5.02.747.02s.554-.02.791-.02v.151h-.071c-.181,0-.373.025-.373.288V324.9c0,.263.192.287.373.287h.071v.152c-.242,0-.545-.02-.8-.02s-.544.02-.741.02v-.152Z" transform="translate(-692.277 -312.721)" fill="#fff"/>
    <path id="Path_363" data-name="Path 363" d="M693.243,324.743c-.244,0-.546-.02-.8-.02s-.543.02-.741.02h-.022v-.2h.092c.183,0,.349-.019.351-.265v-2.641c0-.246-.168-.263-.351-.266h-.092v-.2h.022c.2,0,.5.02.747.02s.553-.02.791-.02h.022v.2h-.093c-.183,0-.35.02-.351.266v2.641c0,.246.168.261.351.265h.093v.2Zm-.022-.043h0v-.108h-.049c-.18,0-.394-.031-.4-.31v-2.641c0-.279.215-.31.4-.31h.049v-.107c-.233,0-.525.02-.769.02s-.529-.018-.724-.02v.107h.048c.18,0,.395.031.395.31v2.641c0,.279-.215.31-.395.31h-.048v.108c.2,0,.48-.02.719-.02s.537.019.775.02Z" transform="translate(-691.684 -312.103)" fill="#fff"/>
    <path id="Path_364" data-name="Path 364" d="M745.034,324.345l.01-.01v-1.89a.416.416,0,0,0-.439-.474h-.111v-.151c.237,0,.469.02.706.02.207,0,.414-.02.62-.02v.151h-.076c-.212,0-.449.04-.449.64V324.9a3.35,3.35,0,0,0,.03.509h-.192l-2.6-2.894V324.6c0,.439.085.589.474.589h.085v.152c-.216,0-.433-.02-.65-.02s-.458.02-.685.02v-.152h.071c.348,0,.453-.236.453-.639v-2.124a.452.452,0,0,0-.458-.453h-.066v-.151c.192,0,.388.02.579.02.151,0,.3-.02.449-.02l2.244,2.525Z" transform="translate(-740.011 -312.72)" fill="#fff"/>
    <path id="Path_365" data-name="Path 365" d="M744.7,324.839l-.208-.008-2.558-2.851V324c.006.438.073.563.452.568h.108v.2h-.022c-.218,0-.435-.02-.65-.02s-.457.02-.686.02h-.022v-.2h.093c.333,0,.428-.216.432-.618v-2.123a.432.432,0,0,0-.437-.432h-.088V321.2h.022c.193,0,.39.019.579.019.15,0,.3-.019.466-.012L744.4,323.7v-1.854c0-.4-.27-.45-.417-.453h-.134V321.2h.022c.238,0,.47.019.706.019.205,0,.412-.019.62-.019h.022v.194h-.1c-.208.006-.422.024-.427.619v2.294a3.316,3.316,0,0,0,.03.505l.005.026Zm-.192-.044h.167a3.364,3.364,0,0,1-.026-.487v-2.294c0-.605.253-.662.47-.662h.053v-.107c-.2,0-.4.02-.6.02-.231,0-.455-.018-.683-.02v.107h.089a.441.441,0,0,1,.461.5l-.007,1.905-.01.01-.017.016-2.242-2.535c-.15,0-.3.02-.449.02-.185,0-.374-.018-.557-.02v.107h.045a.474.474,0,0,1,.479.476v2.123c0,.4-.112.661-.475.662h-.049v.109c.219,0,.443-.02.663-.02s.42.018.628.02v-.107h-.064c-.4,0-.5-.174-.5-.612v-2.134l2.618,2.928Zm-.1-1.047h0l.016-.015Zm-.012-.01h0v0l0,0Z" transform="translate(-739.388 -312.123)" fill="#fff"/>
    <path id="Path_366" data-name="Path 366" d="M862.339,317.749c-.379,0-.393.091-.468.459h-.151c.02-.141.045-.282.06-.429a2.987,2.987,0,0,0,.03-.428h.121c.041.151.166.146.3.146h2.6c.136,0,.262,0,.273-.157l.12.02c-.02.136-.04.272-.055.409s-.009.272-.009.408l-.152.056c-.01-.186-.036-.485-.373-.485h-.827v2.682c0,.389.177.433.418.433h.1v.152c-.2,0-.55-.02-.821-.02-.3,0-.656.02-.853.02v-.152h.1c.278,0,.418-.025.418-.423v-2.693Z" transform="translate(-855.775 -308.398)" fill="#fff"/>
    <path id="Path_367" data-name="Path 367" d="M863.632,320.332c-.2,0-.551-.02-.822-.02-.3,0-.655.02-.852.02h-.021v-.2h.117c.278-.007.39-.01.4-.4v-2.671h-.8v-.044h.848v2.715c0,.4-.163.445-.44.446h-.074v.106c.2,0,.538-.019.831-.019.263,0,.6.018.8.019v-.106h-.074c-.244,0-.44-.06-.44-.456v-2.7h.849c.338,0,.382.289.394.476l.109-.04c0-.131,0-.263.01-.4s.033-.258.052-.387l-.077-.013c-.023.147-.165.154-.292.153h-2.626c-.119,0-.248-.006-.293-.146h-.083a2.99,2.99,0,0,1-.03.409c-.015.138-.038.272-.057.4h.108c.066-.351.11-.465.486-.46v.044c-.373.007-.365.07-.447.442l0,.017H861l0-.026c.02-.141.046-.282.061-.429a2.846,2.846,0,0,0,.031-.424v-.022h.16l0,.016c.035.127.128.128.256.13h2.626c.141,0,.243,0,.251-.136l0-.024.023,0,.142.022,0,.022c-.02.135-.04.271-.055.407s-.01.271-.01.407v.016l-.014.006-.179.065v-.029c-.013-.189-.033-.464-.352-.464h-.8v2.66c0,.38.156.407.4.411h.118v.2Z" transform="translate(-855.082 -307.692)" fill="#fff"/>
    <path id="Path_368" data-name="Path 368" d="M966.691,325.187h.071c.181,0,.373-.024.373-.287v-2.641c0-.263-.192-.288-.373-.288h-.071v-.151c.307,0,.832.02,1.254.02s.948-.02,1.29-.02c-.008.216,0,.55.011.771l-.152.04c-.024-.327-.085-.589-.614-.589h-.7v1.32h.6c.3,0,.368-.171.4-.444h.151q-.014.3-.015.59t.015.575l-.151.03c-.03-.3-.045-.5-.393-.5h-.6v1.174c0,.328.291.328.614.328.605,0,.872-.041,1.023-.615l.141.035c-.066.268-.126.534-.171.8-.323,0-.9-.02-1.356-.02s-1.054.02-1.341.02v-.152Z" transform="translate(-957.078 -312.721)" fill="#fff"/>
    <path id="Path_369" data-name="Path 369" d="M968.8,324.763c-.324,0-.9-.021-1.356-.021s-1.053.021-1.341.021h-.021v-.2h.092c.183,0,.349-.019.351-.265v-2.641c0-.246-.168-.263-.351-.266h-.092V321.2h.021c.308,0,.832.019,1.255.019s.947-.019,1.29-.019h.023v.022c0,.076,0,.165,0,.26,0,.174,0,.365.015.509v.018l-.017,0-.177.046v-.026c-.03-.327-.073-.565-.592-.569h-.679v1.276h.579c.29,0,.342-.151.376-.423l0-.02h.193v.023c-.01.2-.016.393-.016.589s.006.382.016.574v.018l-.018,0-.175.035,0-.024c-.035-.308-.037-.476-.372-.48h-.583v1.153c0,.306.265.3.593.306.607,0,.85-.033,1-.6l0-.02.021,0,.162.042-.005.021c-.065.267-.125.533-.171.8l0,.018Zm-.019-.044h0c.044-.254.1-.509.163-.763l-.1-.025c-.151.564-.443.615-1.038.611-.317,0-.635,0-.637-.35V323h.626c.352,0,.388.209.413.5l.109-.023c-.01-.186-.014-.372-.014-.557s0-.379.014-.568h-.109c-.028.262-.11.447-.417.444h-.622v-1.365h.723c.524,0,.611.267.634.584l.109-.029c-.009-.142-.015-.325-.015-.493,0-.086,0-.168,0-.239-.343,0-.853.02-1.268.02s-.924-.018-1.233-.02v.107h.049c.18,0,.394.031.4.31V324.3c0,.278-.215.309-.4.31h-.049v.106c.294,0,.876-.019,1.319-.019s1.012.019,1.337.019Z" transform="translate(-956.489 -312.124)" fill="#fff"/>
    <path id="Path_370" data-name="Path 370" d="M1055.809,322.344c0-.368-.2-.383-.358-.383h-.091v-.152c.161,0,.474.02.781.02s.545-.02.811-.02c.635,0,1.2.172,1.2.888a.952.952,0,0,1-.7.887l.862,1.29a.558.558,0,0,0,.489.3v.152c-.166,0-.328-.02-.494-.02s-.318.02-.474.02a14.108,14.108,0,0,1-1.049-1.634h-.332v1.079c0,.389.181.4.412.4h.091v.152c-.288,0-.579-.02-.867-.02-.242,0-.479.02-.731.02v-.152h.091c.187,0,.358-.085.358-.272v-2.562Zm.646,1.17h.246c.5,0,.776-.191.776-.786a.688.688,0,0,0-.736-.736,2.561,2.561,0,0,0-.286.02Z" transform="translate(-1042.648 -312.711)" fill="#fff"/>
    <path id="Path_371" data-name="Path 371" d="M1058.193,324.746c-.169,0-.329-.02-.495-.02s-.315.02-.49.012a14.069,14.069,0,0,1-1.044-1.625h-.3v1.056c.005.379.158.376.391.382h.113v.2h-.022c-.288,0-.581-.02-.867-.02-.241,0-.477.02-.73.02h-.022v-.2h.113c.182,0,.335-.08.336-.25V321.74c0-.358-.179-.356-.336-.361h-.113v-.2h.022c.163,0,.474.02.781.02s.543-.02.812-.02c.635,0,1.22.177,1.222.909a.966.966,0,0,1-.69.9l.847,1.268a.541.541,0,0,0,.474.293l.018,0v.192Zm-2.349-1.677h.344l.006.011a15.723,15.723,0,0,0,1.031,1.623c.154,0,.316-.021.473-.021s.316.017.473.02v-.11a.576.576,0,0,1-.485-.309l-.877-1.313.025-.01a.928.928,0,0,0,.687-.868c0-.7-.544-.862-1.177-.864-.266,0-.508.02-.812.02s-.595-.018-.76-.02v.107h.069c.157,0,.38.026.38.405V324.3c0,.2-.19.295-.38.3h-.069v.106c.243,0,.472-.02.709-.02.282,0,.566.019.845.02V324.6h-.069c-.23,0-.435-.029-.435-.427v-1.1h.022Zm0-.138h-.022v-1.544l.019,0a2.476,2.476,0,0,1,.289-.02.712.712,0,0,1,.759.758c0,.6-.29.806-.8.807Zm.247-.043h0c.5,0,.75-.178.755-.763a.668.668,0,0,0-.716-.716,2.13,2.13,0,0,0-.265.018v1.461Z" transform="translate(-1042.038 -312.106)" fill="#fff"/>
    <path id="Path_372" data-name="Path 372" d="M1161.442,324.345l.009-.01v-1.89a.415.415,0,0,0-.438-.474h-.11v-.151c.237,0,.468.02.705.02.207,0,.413-.02.621-.02v.151h-.076c-.212,0-.449.04-.449.64V324.9a3.327,3.327,0,0,0,.03.509h-.191l-2.6-2.894V324.6c0,.439.086.589.474.589h.086v.152c-.216,0-.433-.02-.65-.02s-.459.02-.686.02v-.152h.07c.348,0,.454-.236.454-.639v-2.124a.452.452,0,0,0-.458-.453h-.066v-.151c.191,0,.388.02.579.02.15,0,.3-.02.448-.02l2.243,2.525Z" transform="translate(-1141.865 -312.72)" fill="#fff"/>
    <path id="Path_373" data-name="Path 373" d="M1161.107,324.819l-.208-.007-2.558-2.852v2.02c.006.439.072.563.453.568h.107v.2h-.022c-.218,0-.434-.021-.65-.021s-.458.021-.685.021h-.023v-.2h.093c.333,0,.428-.216.431-.619v-2.122a.43.43,0,0,0-.435-.432h-.089v-.2h.023c.192,0,.389.02.579.02.148,0,.294-.02.464-.013l2.216,2.5v-1.855c0-.4-.27-.45-.416-.452h-.133v-.2h.022c.239,0,.47.02.706.02.205,0,.412-.02.62-.02h.022v.2h-.1c-.208.006-.422.024-.427.619v2.294a3.211,3.211,0,0,0,.03.506l0,.024Zm-.191-.044h.166a3.47,3.47,0,0,1-.027-.487v-2.294c0-.605.256-.661.472-.663h.053v-.107c-.2,0-.4.02-.6.02-.231,0-.456-.018-.684-.02v.107h.089a.442.442,0,0,1,.461.5l-.007,1.906-.01.01-.015.016-2.243-2.535c-.15,0-.3.02-.448.02-.187,0-.375-.018-.558-.02v.107h.045a.475.475,0,0,1,.479.476v2.122c0,.4-.114.662-.475.664h-.049v.107c.218,0,.443-.019.664-.019s.421.018.629.019v-.106h-.064c-.4,0-.5-.174-.5-.613v-2.133l2.619,2.927Zm-.1-1.047h0l.015-.014Zm-.013-.009h0v0l0,0Z" transform="translate(-1141.238 -312.104)" fill="#fff"/>
    <path id="Path_374" data-name="Path 374" d="M1274.484,321.125a2.016,2.016,0,0,0-.112.393c0,.152.212.176.378.176h.056v.152c-.2-.011-.408-.02-.611-.02-.181,0-.362.009-.544.02v-.152h.03a.455.455,0,0,0,.438-.328l.807-2.313a4.26,4.26,0,0,0,.187-.626,2.569,2.569,0,0,0,.458-.216.114.114,0,0,1,.04-.01.035.035,0,0,1,.036.016c.015.04.029.086.045.126l.927,2.637c.06.176.12.363.186.514a.321.321,0,0,0,.334.2h.03v.152c-.227-.011-.454-.02-.7-.02s-.5.009-.757.02v-.152h.056c.115,0,.313-.02.313-.146a1.617,1.617,0,0,0-.1-.363l-.2-.585h-1.144l-.161.525Zm.735-2.234h-.01l-.469,1.427h.942Z" transform="translate(-1253.309 -309.227)" fill="#fff"/>
    <path id="Path_375" data-name="Path 375" d="M1276.56,321.26c-.227-.01-.454-.021-.694-.021s-.5.01-.756.021h-.023v-.2h.078c.117,0,.29-.027.29-.123a1.585,1.585,0,0,0-.1-.356l-.192-.57h-1.112l-.157.509a2.135,2.135,0,0,0-.111.387c0,.123.19.153.357.153h.078v.2h-.023c-.2-.01-.408-.021-.609-.021-.181,0-.363.01-.543.021h-.023v-.2h.052a.432.432,0,0,0,.417-.312l.807-2.314a5.848,5.848,0,0,0,.2-.639,2.561,2.561,0,0,0,.458-.216.14.14,0,0,1,.049-.012.062.062,0,0,1,.055.029c.014.042.03.086.045.127l.928,2.637c.059.177.12.363.185.512a.3.3,0,0,0,.313.188h.051v.2l-.023,0Zm-1.429-.045h0c.25-.009.494-.019.735-.019s.453.01.672.019v-.105h-.007a.343.343,0,0,1-.354-.215c-.066-.153-.127-.34-.186-.517l-.928-2.636c-.015-.04-.03-.086-.043-.122,0,0,0,0-.007,0H1275a.107.107,0,0,0-.029.007,1.876,1.876,0,0,1-.449.2,4.179,4.179,0,0,1-.187.629l-.807,2.314a.48.48,0,0,1-.459.343h-.008v.105c.173-.009.347-.019.523-.019.195,0,.394.01.586.019v-.105h-.032c-.164,0-.393-.021-.4-.2a1.98,1.98,0,0,1,.111-.4l.022.007-.022-.007.166-.539h1.175l.2.6a1.511,1.511,0,0,1,.1.37c-.007.155-.22.166-.334.169h-.034v.105Zm-1.031-1.482h0l.483-1.471h.027v.022h0v-.022h.015l.479,1.471Zm.061-.044h.882l-.439-1.351Zm.427-1.4h0l.011,0Z" transform="translate(-1252.7 -308.621)" fill="#fff"/>
    <path id="Path_376" data-name="Path 376" d="M1363.519,317.749c-.378,0-.393.091-.469.459h-.151c.02-.141.045-.282.061-.429a2.987,2.987,0,0,0,.029-.428h.122c.04.151.167.146.3.146h2.6c.135,0,.261,0,.272-.157l.121.02c-.019.136-.039.272-.055.409s-.011.272-.011.408l-.151.056c-.01-.186-.035-.485-.373-.485h-.827v2.682c0,.389.177.433.418.433h.1v.152c-.2,0-.549-.02-.821-.02-.3,0-.656.02-.852.02v-.152h.1c.278,0,.419-.025.419-.423v-2.693Z" transform="translate(-1339.436 -308.398)" fill="#fff"/>
    <path id="Path_377" data-name="Path 377" d="M1364.8,320.333c-.2,0-.551-.02-.822-.02-.3,0-.654.02-.852.02h-.022v-.2h.118c.278-.007.39-.01.4-.4v-2.671h-.8v-.044h.848v2.715c0,.4-.163.444-.44.445h-.074v.108c.2,0,.538-.02.83-.02.263,0,.6.018.8.02v-.108h-.074c-.242,0-.439-.059-.439-.456v-2.7h.849c.338,0,.383.289.392.476l.11-.04c0-.131,0-.263.01-.4s.033-.259.052-.388l-.076-.013c-.023.147-.165.155-.291.153h-2.627c-.119,0-.247-.006-.293-.147h-.083a3.016,3.016,0,0,1-.031.41c-.013.139-.038.272-.057.4h.108c.067-.351.11-.465.487-.46v.044c-.374.006-.365.07-.448.442l0,.017h-.194l0-.025c.021-.142.046-.283.061-.429a2.9,2.9,0,0,0,.031-.425v-.022h.159l0,.016c.035.127.127.128.256.13h2.627c.139,0,.241,0,.25-.136v-.024l.024,0,.143.022,0,.022c-.021.135-.04.271-.055.407s-.01.271-.01.406v.016l-.014.006-.179.065v-.029c-.013-.189-.033-.464-.351-.464h-.8v2.66c.005.38.156.406.4.411h.118v.2Z" transform="translate(-1338.73 -307.693)" fill="#fff"/>
    <path id="Path_378" data-name="Path 378" d="M1468.59,325.187h.071c.182,0,.373-.024.373-.287v-2.641c0-.263-.191-.288-.373-.288h-.071v-.151c.2,0,.5.02.745.02s.555-.02.792-.02v.151h-.071c-.181,0-.374.025-.374.288V324.9c0,.263.192.287.374.287h.071v.152c-.242,0-.545-.02-.8-.02s-.545.02-.742.02Z" transform="translate(-1441.433 -312.721)" fill="#fff"/>
    <path id="Path_379" data-name="Path 379" d="M1469.521,324.763c-.244,0-.545-.021-.8-.021s-.544.021-.741.021h-.022v-.2h.093c.182,0,.349-.018.35-.265v-2.641c0-.246-.168-.263-.35-.266h-.093V321.2h.022c.2,0,.5.019.745.019s.554-.019.792-.019h.021v.194h-.092c-.184,0-.349.02-.352.266V324.3c0,.247.168.262.352.265h.092v.2Zm-.023-.044h0v-.107h-.048c-.181,0-.395-.032-.395-.31v-2.641c0-.279.214-.31.395-.31h.048v-.107c-.233,0-.524.02-.77.02s-.528-.018-.723-.02v.107h.048c.179,0,.394.031.395.31V324.3c0,.278-.215.31-.395.31h-.048v.107c.194,0,.48-.019.719-.019s.536.018.774.019Z" transform="translate(-1440.826 -312.124)" fill="#fff"/>
    <path id="Path_380" data-name="Path 380" d="M1518.76,319.66a1.768,1.768,0,0,1,1.931,1.74,1.849,1.849,0,0,1-1.9,1.931,1.781,1.781,0,0,1-1.885-1.81,1.833,1.833,0,0,1,1.859-1.86Zm.076,3.448h0c.978,0,1.148-.863,1.148-1.6s-.4-1.629-1.234-1.629c-.882,0-1.144.786-1.144,1.461,0,.9.413,1.765,1.23,1.765Z" transform="translate(-1488.056 -310.636)" fill="#fff"/>
    <path id="Path_381" data-name="Path 381" d="M1516.25,320.912a1.859,1.859,0,0,1,1.882-1.882v.043a1.813,1.813,0,0,0-1.839,1.839,1.761,1.761,0,0,0,1.865,1.787,1.828,1.828,0,0,0,1.884-1.909,1.748,1.748,0,0,0-1.91-1.717v-.043a1.792,1.792,0,0,1,1.953,1.761,1.874,1.874,0,0,1-1.927,1.953,1.807,1.807,0,0,1-1.908-1.831Zm.706-.177h0c0-.678.266-1.484,1.166-1.484.856,0,1.255.911,1.257,1.652s-.174,1.619-1.171,1.619v-.043c.958,0,1.125-.841,1.127-1.576s-.394-1.606-1.213-1.607c-.865,0-1.121.768-1.122,1.439,0,.9.41,1.741,1.208,1.743v.043c-.837,0-1.251-.878-1.252-1.786Z" transform="translate(-1487.427 -310.028)" fill="#fff"/>
    <path id="Path_382" data-name="Path 382" d="M1632.182,324.345l.01-.01v-1.89a.416.416,0,0,0-.439-.474h-.109v-.151c.236,0,.468.02.7.02.207,0,.414-.02.621-.02v.151h-.076c-.211,0-.448.04-.448.64V324.9a3.249,3.249,0,0,0,.03.509h-.191l-2.6-2.894V324.6c0,.439.085.589.473.589h.086v.152c-.217,0-.433-.02-.65-.02s-.459.02-.686.02v-.152h.071c.349,0,.453-.236.453-.639v-2.124a.451.451,0,0,0-.458-.453h-.066v-.151c.192,0,.388.02.58.02.151,0,.3-.02.449-.02l2.243,2.525Z" transform="translate(-1596.149 -312.72)" fill="#fff"/>
    <path id="Path_383" data-name="Path 383" d="M1631.884,324.839l-.209-.007-2.558-2.851V324c.005.438.072.562.451.567h.109v.2h-.022c-.219,0-.435-.02-.65-.02s-.458.02-.687.02h-.021v-.2h.092c.333,0,.428-.215.432-.617v-2.124a.431.431,0,0,0-.437-.432h-.087V321.2h.021c.193,0,.39.019.58.019.15,0,.3-.019.466-.012l2.215,2.494v-1.854c0-.4-.27-.45-.417-.453h-.132V321.2h.023c.237,0,.47.019.7.019.207,0,.413-.019.622-.019h.021v.194h-.1c-.207.006-.422.025-.426.619v2.294a3.315,3.315,0,0,0,.028.506l0,.024h-.024Zm-.192-.044h.165a3.475,3.475,0,0,1-.026-.487v-2.294c0-.606.254-.661.47-.663h.054v-.107c-.2,0-.4.02-.6.02-.229,0-.455-.018-.683-.02v.107h.088a.442.442,0,0,1,.46.5l-.006,1.905-.01.011-.016.016-2.243-2.535c-.149,0-.3.02-.449.02-.186,0-.375-.018-.558-.02v.107h.044a.476.476,0,0,1,.48.476v2.124c0,.4-.112.661-.475.662h-.05v.107c.219,0,.443-.019.665-.019s.419.018.628.019v-.106h-.065c-.4,0-.495-.174-.495-.612v-2.134l2.618,2.928Zm-.1-1.047h0l.016-.014Zm-.012-.009h0v0l0,0Z" transform="translate(-1595.559 -312.124)" fill="#fff"/>
    <path id="Path_384" data-name="Path 384" d="M1745.26,321.125a2.119,2.119,0,0,0-.11.393c0,.152.212.176.378.176h.056v.152c-.2-.011-.409-.02-.61-.02-.182,0-.363.009-.543.02v-.152h.029a.456.456,0,0,0,.439-.328l.807-2.313a4.164,4.164,0,0,0,.186-.626,2.6,2.6,0,0,0,.46-.216.108.108,0,0,1,.04-.01c.015,0,.024,0,.035.016.015.04.031.086.046.126l.927,2.637c.06.176.121.363.187.514a.32.32,0,0,0,.332.2h.031v.152c-.227-.011-.454-.02-.7-.02s-.5.009-.756.02v-.152h.056c.115,0,.313-.02.313-.146a1.631,1.631,0,0,0-.1-.363l-.2-.585h-1.144l-.162.525Zm.737-2.234h-.01l-.469,1.427h.943Z" transform="translate(-1707.631 -309.227)" fill="#fff"/>
    <path id="Path_385" data-name="Path 385" d="M1747.337,321.281c-.227-.009-.453-.02-.694-.02s-.5.011-.755.02h-.022v-.2h.077c.117,0,.291-.027.292-.124a1.619,1.619,0,0,0-.1-.356l-.192-.57h-1.113l-.156.509a2.124,2.124,0,0,0-.109.387c0,.124.189.155.356.155H1745v.2h-.022c-.2-.009-.408-.02-.609-.02-.181,0-.362.011-.543.02h-.022v-.2h.051a.436.436,0,0,0,.419-.313l.807-2.314a6.641,6.641,0,0,0,.2-.639,2.69,2.69,0,0,0,.459-.217.13.13,0,0,1,.047-.01.057.057,0,0,1,.055.029c.015.04.03.085.047.126l.927,2.637c.06.177.121.363.186.513a.3.3,0,0,0,.312.188h.053v.2Zm-1.429-.044h0c.249-.009.495-.019.734-.019s.454.01.674.019v-.105h-.008a.344.344,0,0,1-.353-.215c-.066-.153-.127-.34-.187-.516l-.928-2.637c-.015-.04-.03-.086-.043-.12,0-.006,0-.006-.008-.006h-.01a.094.094,0,0,0-.028.007,1.936,1.936,0,0,1-.449.2,4.281,4.281,0,0,1-.188.629l-.807,2.314a.48.48,0,0,1-.459.343h-.007v.105c.173-.009.347-.019.522-.019.2,0,.394.01.588.019v-.105h-.034c-.164,0-.394-.02-.4-.2a2.108,2.108,0,0,1,.112-.4l.021.007-.021-.007.166-.539h1.175l.2.6a1.563,1.563,0,0,1,.1.37c-.007.155-.219.166-.334.169h-.033v.106Zm-1.03-1.483h0l.483-1.47h.026v.022h0v-.022h.016l.476,1.47Zm.06-.043h.882l-.438-1.35-.443,1.35Zm.428-1.4h0l.01,0Z" transform="translate(-1707.022 -308.641)" fill="#fff"/>
    <path id="Path_386" data-name="Path 386" d="M1851.206,324.845c0,.2.14.262.3.282a3.66,3.66,0,0,0,.666-.01.721.721,0,0,0,.483-.272,1.136,1.136,0,0,0,.156-.363h.146c-.055.287-.126.57-.187.857-.443,0-.887-.02-1.33-.02s-.887.02-1.331.02v-.152h.069c.183,0,.38-.024.38-.337v-2.591c0-.263-.2-.288-.38-.288h-.069v-.151c.266,0,.529.02.8.02s.51-.02.767-.02v.151h-.127c-.191,0-.341.006-.341.272v2.6Z" transform="translate(-1809.619 -312.721)" fill="#fff"/>
    <path id="Path_387" data-name="Path 387" d="M1852.153,324.764c-.444,0-.888-.02-1.33-.02s-.887.02-1.332.02h-.021v-.2h.091c.183,0,.355-.017.358-.316v-2.592c0-.245-.174-.262-.358-.265h-.091V321.2h.021c.268,0,.531.019.8.019s.508-.019.766-.019h.021v.194h-.147c-.2.006-.317,0-.321.251v2.6c0,.188.125.238.282.26.089.006.182.01.28.01a3.577,3.577,0,0,0,.382-.02.7.7,0,0,0,.469-.263,1.123,1.123,0,0,0,.152-.356l0-.017h.19l0,.027c-.057.288-.126.57-.187.857l0,.017h-.017Zm-.018-.044h0c.058-.273.124-.541.179-.813h-.1a1.157,1.157,0,0,1-.156.355.747.747,0,0,1-.5.281,3.783,3.783,0,0,1-.386.021c-.1,0-.192,0-.284-.011-.164-.018-.323-.088-.322-.3v-2.6c0-.28.177-.294.365-.294h.1v-.107c-.248,0-.493.02-.744.02s-.516-.018-.775-.02v.107h.048c.18,0,.4.031.4.309v2.592c0,.326-.219.36-.4.36h-.048v.107c.436,0,.872-.019,1.31-.019s.876.019,1.312.019Z" transform="translate(-1809 -312.124)" fill="#fff"/>
    <path id="Path_388" data-name="Path 388" d="M1915.16,317.72a.531.531,0,1,1-.531.533A.522.522,0,0,1,1915.16,317.72Zm0,.963h0a.432.432,0,1,0-.421-.43A.428.428,0,0,0,1915.16,318.683Zm-.264-.151h0v-.026c.065-.009.077-.007.077-.047v-.393c0-.055-.006-.074-.075-.071v-.027h.272c.094,0,.179.044.179.141a.167.167,0,0,1-.125.16l.087.122a.543.543,0,0,0,.117.125v.017h-.1c-.05,0-.093-.1-.191-.245h-.059v.177c0,.035.012.033.078.042v.026h-.256Zm.179-.28h.063c.069,0,.1-.052.1-.136a.1.1,0,0,0-.1-.114h-.059Z" transform="translate(-1871.881 -308.764)" fill="#fff"/>
  </g>
</svg>
