<svg xmlns="http://www.w3.org/2000/svg" width="194" height="45" viewBox="0 0 194 45">
  <g id="FastrackLogo-DesktopHeader" transform="translate(-140 -77.074)">
    <path id="Path_200" data-name="Path 200" d="M209.452,26.962a8.539,8.539,0,0,1-4.416,2.511c-3.9.686-7.837,1.121-11.734,1.829a45.706,45.706,0,0,0-8.136,1.983,27.861,27.861,0,0,0-10.5,7.5,17.814,17.814,0,0,1-3.537,3.173,11.31,11.31,0,0,1-4.107,1.19,9.887,9.887,0,0,0,6.129-6.12,10.346,10.346,0,0,0-.84-8.924,7.829,7.829,0,0,0-5.764-4.129,8.4,8.4,0,0,0-6.765,1.573,7.015,7.015,0,0,1,4.467-3.116,39.218,39.218,0,0,1,5.171-.738,12.477,12.477,0,0,0,5.162-1.932,33.533,33.533,0,0,0,8.237-7.181c2.677-3.131,5.3-6.321,8.06-9.359A15.231,15.231,0,0,1,196.941.893c4.03-1.432,9.57-.942,12.864,2.729a10.72,10.72,0,0,0-7.618-.974,10.258,10.258,0,0,0-6.48,4.175,13.531,13.531,0,0,0-.135,16.526A11.243,11.243,0,0,0,209.452,26.962Z" transform="translate(-19.787 76.926)" fill="#ff721d"/>
    <path id="Union_2" data-name="Union 2" d="M31.87,17.239A2.035,2.035,0,0,1,29.5,15.585h9.547c1.282,0,1.589-.28,1.6-1.385,0-.8-.529-1.261-1.621-1.27-2.093-.02-4.184.023-6.276.023-1.513,0-2.03-.637-1.7-2.127.206-.937.457-1.873.729-2.8a3.618,3.618,0,0,1,3.749-2.917C39.2,5.063,42.883,5.1,46.575,5.1c-.1,1.191-.658,1.785-1.813,1.806-1.511.026-3.022.026-4.531.026-.676,0-1.354,0-2.03,0-.282,0-.562-.014-.845.012-.631.056-1.3.113-1.368.95-.074.909.576,1.218,1.293,1.274.776.059,1.558.055,2.34.051q.423,0,.847,0c1.219,0,2.438-.027,3.653,0,1.687.051,2.185.682,1.793,2.316-.245,1.026-.545,2.04-.89,3.038a3.759,3.759,0,0,1-3.784,2.65c-1.454.024-2.908.032-4.363.032C35.209,17.258,33.54,17.248,31.87,17.239Zm63.111.01c-2.061,0-2.812-.853-2.416-2.867s.868-4.009,1.4-5.992A4.3,4.3,0,0,1,98.5,5.018c3.11.106,6.228.028,9.357.028-.445,1.617-.774,1.873-2.328,1.873h-4.585c-1.313,0-1.6.2-1.9,1.443-.453,1.842-.888,3.687-1.285,5.54-.233,1.092-.082,1.339,1.048,1.5a26.9,26.9,0,0,0,3.075.166c.882.037,1.754.017,2.714.017-.529,1.429-.827,1.662-2.114,1.664q-1.874.006-3.748.005T94.981,17.249Zm-33.794,0c.317-1.33.588-2.494.87-3.657q.864-3.532,1.74-7.066c.292-1.171.668-1.469,1.891-1.474.939,0,1.875.016,2.812.032a2.309,2.309,0,0,1,.4.106c-.5,2.121-.974,4.17-1.462,6.219-.339,1.421-.672,2.844-1.046,4.258-.343,1.3-.725,1.574-2.042,1.582Zm57.73-.037c-.225,0-.549-.355-.633-.608-.69-2.124-1.336-4.261-2.034-6.527-1.033.651-2,1.24-2.939,1.871a1.157,1.157,0,0,0-.3.647c-.313,1.3-.635,2.595-.9,3.906a.791.791,0,0,1-.939.739c-1.393-.041-2.792-.014-4.311-.014,1.423-5.833,2.812-11.494,4.2-17.193h5.022c-.731,2.92-1.432,5.8-2.171,8.834l8.342-4.854a4.64,4.64,0,0,1-1.818,2.955A.877.877,0,0,0,120.06,8.2c.888,2.687,1.736,5.387,2.6,8.084.092.29.161.586.263.96-.681,0-1.344.007-2,.007C120.246,17.252,119.581,17.245,118.917,17.216Zm-34.429.028c.513-2.124.986-4.137,1.464-6.177-1.769,0-3.421-.083-5.062.051A2.149,2.149,0,0,0,79.548,12.2a6.524,6.524,0,0,0-.474,1.981,1.055,1.055,0,0,0,1.072,1.392c1.113.058,2.23.013,3.372.013-.5,1.311-.976,1.666-2.22,1.662-1.9,0-3.811.016-5.714-.047-1.738-.06-2.034-.4-1.742-2.122a25.658,25.658,0,0,1,.888-3.418c.58-1.832,2.179-1.989,3.717-2.044,1.307-.048,2.614-.036,3.921-.023.754.007,1.509.016,2.265.011.337,0,.813.051.982-.137a11.667,11.667,0,0,0,1.07-1.643c-.511-.274-1.013-.76-1.538-.786a34.551,34.551,0,0,0-5.062.071c-1.542.155-2.3-.588-2.863-1.947.288-.023.545-.062.8-.062H88.707c2.835,0,3.386.666,2.783,3.45-.582,2.673-1.235,5.334-1.891,7.991-.063.265-.359.664-.56.672-.772.029-1.545.036-2.329.036C85.981,17.249,85.244,17.243,84.488,17.243Zm-33.4.006c-1.662,0-2.35-.708-2.03-2.326.482-2.435,1.1-4.847,1.656-7.272.041-.186.061-.363.108-.661-1.313.069-1.958-.728-2.438-1.957.833,0,1.566-.025,2.3,0a.692.692,0,0,0,.841-.627c.176-.778.21-1.843.721-2.219a2.586,2.586,0,0,1,1.607-.166c.261.022.521.042.762.041h2.453c-.237,1-.453,1.915-.7,2.965h5.113c-.188,1.345-.678,1.874-1.85,1.909-1.221.053-2.44.017-3.678.017-.6,2.434-1.207,4.778-1.756,7.133-.218.934.21,1.411,1.28,1.473.672.038,1.348.031,2.024.025.292,0,.588,0,.882,0H59.4c-.355,1.31-.77,1.666-1.932,1.666Zm-28.862-.043L23.664,11c-1.791,0-3.494-.069-5.185.047a1.838,1.838,0,0,0-1.178,1,8.9,8.9,0,0,0-.6,2.248c-.125.7.337,1.058.939,1.157a16.431,16.431,0,0,0,1.948.132c.5.021,1,0,1.581,0-.29.954-.831,1.593-1.807,1.6-2.216.024-4.431-.037-6.645-.056-.921,0-1.421-.584-1.25-1.374a29.228,29.228,0,0,1,1.423-4.886c.439-1.068,1.607-1.287,2.72-1.291,2.216,0,4.434.018,6.651-.023a2.155,2.155,0,0,0,1.381-.406,1.917,1.917,0,0,0,.615-1.423c-.047-.305-.774-.7-1.213-.726-1.873-.085-3.749-.051-5.622-.051-1.544,0-1.875-.236-2.406-1.834a3.752,3.752,0,0,1,.437-.051c3.905,0,7.811-.018,11.716,0,1.685,0,2.5.748,2.2,2.369-.59,3.3-1.417,6.541-2.142,9.776ZM0,17.2c.413-1.729.819-3.4,1.217-5.075s.792-3.371,1.189-5.072C.956,6.817.549,6.452.221,5.063H2.857c.253-.827.461-1.6.725-2.348A3.519,3.519,0,0,1,7.431,0H15.3c-.241,1.212-.613,1.539-1.719,1.542-1.156,0-2.312.022-3.468,0A1.365,1.365,0,0,0,8.563,2.7c-.18.75-.425,1.477-.67,2.341h5.33c-.58,1.668-.915,1.918-2.477,1.917-.751,0-1.5.031-2.25-.034s-1.076.138-1.246.937c-.615,2.922-1.334,5.822-2.02,8.728A5.256,5.256,0,0,1,5,17.2ZM75.339,5.126c-.613,1.872-.911,2.06-2.722,2.108-1.2.028-2.395.163-3.543.248C69.717,5.569,71.443,4.873,75.339,5.126Z" transform="translate(211.081 90.944)"/>
  </g>
</svg>
