<svg id="Group_615" data-name="Group 615" xmlns="http://www.w3.org/2000/svg" width="87.108" height="17.273" viewBox="0 0 87.108 17.273">
  <path id="path150" d="M132.186,60.975h2.765l2.168-8.078h-2.737Zm0,0" transform="translate(-116.286 -43.866)" fill="#fff"/>
  <path id="path152" d="M146.062,60.975h2.765l2.168-8.078h-2.765Zm0,0" transform="translate(-115.005 -43.866)" fill="#fff"/>
  <path id="path154" d="M159.963,60.975H162.7l2.142-8.078h-2.765Zm0,0" transform="translate(-113.725 -43.866)" fill="#fff"/>
  <path id="path156" d="M143.686,55.661h2.765c.379-1.815-.786-2.737-3.5-2.737-3.144,0-5.258,1.544-5.989,4.174-.625,2.439.65,3.9,3.6,3.9,2.982,0,4.743-.921,5.476-3.009H143.28a2.132,2.132,0,0,1-2.086,1.382c-1.329,0-1.871-.813-1.464-2.357a2.934,2.934,0,0,1,2.792-2.494c.867,0,1.246.379,1.165,1.138" transform="translate(-115.77 -43.865)" fill="#fff"/>
  <path id="path158" d="M157.59,55.661h2.765c.379-1.815-.814-2.737-3.525-2.737-3.117,0-5.258,1.544-5.962,4.174-.65,2.439.623,3.9,3.578,3.9s4.716-.921,5.475-3.009h-2.764a2.111,2.111,0,0,1-2.088,1.382c-1.328,0-1.87-.813-1.437-2.357a2.888,2.888,0,0,1,2.765-2.494c.868,0,1.275.379,1.194,1.138" transform="translate(-114.422 -43.865)" fill="#fff"/>
  <path id="Subtraction_19" data-name="Subtraction 19" d="M3.3,17.146A3.655,3.655,0,0,1,1.839,16.7,3.306,3.306,0,0,1,.722,15.662a4.126,4.126,0,0,1-.507-1.123,5.736,5.736,0,0,1-.208-1.325,8.144,8.144,0,0,1,.076-1.478,11.005,11.005,0,0,1,.345-1.583,13.791,13.791,0,0,1,.6-1.639A15.963,15.963,0,0,1,1.87,6.866,17.169,17.169,0,0,1,2.938,5.258a17.345,17.345,0,0,1,1.28-1.521A15.582,15.582,0,0,1,5.984,2.128,12.426,12.426,0,0,1,7.786.958,9.059,9.059,0,0,1,9.544.242,6.072,6.072,0,0,1,11.182,0a3.88,3.88,0,0,1,1.709.365,3.222,3.222,0,0,1,1.276,1.118A4.051,4.051,0,0,1,14.682,2.6,5.652,5.652,0,0,1,14.9,3.92,8.07,8.07,0,0,1,14.827,5.4a10.954,10.954,0,0,1-.342,1.585,13.762,13.762,0,0,1-.6,1.643,15.94,15.94,0,0,1-.841,1.652,17.124,17.124,0,0,1-1.068,1.612A17.257,17.257,0,0,1,10.7,13.411a15.091,15.091,0,0,1-2.279,2l.083-.066a.882.882,0,0,1-.313.067.453.453,0,0,1-.224-.055A.475.475,0,0,1,7.8,15.2a1.336,1.336,0,0,1-.17-.62,5.167,5.167,0,0,1,.03-.932,18.131,18.131,0,0,1,.473-2.41c.437-1.72,1.043-3.513,1.3-4.279h0c.058-.173.1-.3.122-.365A.95.95,0,0,0,9.5,5.752a1.14,1.14,0,0,0-.983-.421,2.074,2.074,0,0,0-.562.079A9.386,9.386,0,0,0,6.021,6.653,12.157,12.157,0,0,0,4.246,8.241a1.5,1.5,0,0,0-.232.4A.342.342,0,0,0,4,8.891a.219.219,0,0,0,.217.115.647.647,0,0,0,.322-.1,2.349,2.349,0,0,1,1.142-.4.661.661,0,0,1,.567.259,1.978,1.978,0,0,1,.108,1.01,13.514,13.514,0,0,1-.3,2.05,20.8,20.8,0,0,1-1,3.321,8.23,8.23,0,0,1-.38.791,4.169,4.169,0,0,1-.422.632,1.9,1.9,0,0,1-.466.419.988.988,0,0,1-.513.152H3.243l.061.01ZM10.531,1.312a2.408,2.408,0,0,0-1.568.806,2.674,2.674,0,0,0-.769,1.69.845.845,0,0,0,.226.592.712.712,0,0,0,.534.2,2.424,2.424,0,0,0,1.58-.809,2.743,2.743,0,0,0,.786-1.617V2.089a.768.768,0,0,0-.217-.549A.734.734,0,0,0,10.531,1.312Z" fill="#fff"/>
  <path id="path166" d="M168.843,59.7l.623-2.33h1.517V56.123h-1.165l.542-1.979h.623V52.923h-2.061L166.782,61h4.2V59.7Zm2.141-2.33h.3c1.383,0,2.033.244,1.763,1.192-.217.84-.894,1.138-2.061,1.138V61a4.6,4.6,0,0,0,2.819-.679,2.722,2.722,0,0,0,1.139-1.6c.3-1.111-.191-1.871-1.464-2.032a2.489,2.489,0,0,0,2.195-1.817,1.334,1.334,0,0,0-.488-1.626,4.107,4.107,0,0,0-2.141-.326h-2.061v1.221h1.058c1.3,0,1.9.163,1.707.975-.244.786-.948,1-2.276,1h-.489Zm0,0" transform="translate(-112.901 -43.865)" fill="#fff"/>
  <path id="path168" d="M178.393,55.289v1a.942.942,0,0,0-.488.57h-1.626a2.62,2.62,0,0,1,2.113-1.572m0,4.743a2.31,2.31,0,0,1-.623.081c-.732,0-1.057-.3-.894-.841.163-.623.65-.84,1.517-.921V57.4c-1.871.135-2.9.623-3.226,1.842-.3,1.111.408,1.844,1.871,1.844a3.652,3.652,0,0,0,1.355-.244Zm1.573-1.681-.027.081a2.117,2.117,0,0,1-1.546,1.6v.813a3.5,3.5,0,0,0,1.084-.677l-.135.786h1.627c.081-.381.163-.814.271-1.248l.623-2.276a2.063,2.063,0,0,0,.081-.569v-.271c-.054-.923-.84-1.41-2.3-1.41a8.35,8.35,0,0,0-1.248.11v1a1.878,1.878,0,0,1,.923-.188c.839,0,1.165.378.92,1.192l-.026.081h-.868c-.324,0-.65.027-.948.027v.948Zm0,0" transform="translate(-112.222 -43.816)" fill="#fff"/>
  <path id="path170" d="M182.276,60.953h1.654l.786-2.9a2.362,2.362,0,0,1,2.222-1.763c.975,0,1.329.57,1,1.708l-.787,2.955h1.654l.921-3.442c.379-1.463-.352-2.332-1.978-2.332a3.468,3.468,0,0,0-2.63,1.138l.19-1h-1.653c-.163.894-.271,1.437-.326,1.654Zm0,0" transform="translate(-110.916 -43.816)" fill="#fff"/>
  <path id="path172" d="M190.1,61h1.627l.813-3.036,2.2,3.036h2.249l-2.494-3.226,3.361-2.413h-2.086l-3.117,2.25,1.246-4.689h-1.626Zm0,0" transform="translate(-110.746 -43.864)" fill="#fff"/>
</svg>
