<svg id="mastercardicon" xmlns="http://www.w3.org/2000/svg" width="22.266" height="17.272" viewBox="0 0 22.266 17.272">
  <path id="Subtraction_18" data-name="Subtraction 18" d="M14.764,17.272h0a1.027,1.027,0,0,1-.672-.236,1.016,1.016,0,0,1-.008-1.453,1,1,0,0,1,.669-.241,1.062,1.062,0,0,1,.655.219l-.189.323a.81.81,0,0,0-.473-.166.54.54,0,0,0-.556.583.55.55,0,0,0,.565.584.806.806,0,0,0,.463-.156l.189.323a.885.885,0,0,1-.3.164A1.091,1.091,0,0,1,14.764,17.272Zm5.459-.008h0a.929.929,0,0,1-.623-.244,1.023,1.023,0,0,1-.005-1.434.913.913,0,0,1,.619-.247.779.779,0,0,1,.32.067.656.656,0,0,1,.256.2v-.959h.393v2.57H20.79v-.229A.671.671,0,0,1,20.223,17.265Zm.041-1.544a.582.582,0,0,0,0,1.163.545.545,0,0,0,.557-.582A.557.557,0,0,0,20.263,15.721Zm-3.731,1.544h0a.925.925,0,0,1-.921-.963,1.031,1.031,0,0,1,.081-.411.9.9,0,0,1,.211-.3.918.918,0,0,1,.622-.249.76.76,0,0,1,.317.067.657.657,0,0,1,.255.2v-.219H17.5v1.829H17.1v-.229A.67.67,0,0,1,16.532,17.265Zm.038-1.544a.582.582,0,1,0,.557.582A.551.551,0,0,0,16.571,15.721ZM9.557,17.264h0a.62.62,0,0,1-.422-.142.688.688,0,0,1-.194-.536v-.83H8.564v-.363h.378v-.557h.408v.557H10v.368H9.349v.825c0,.249.145.3.267.3a.765.765,0,0,0,.339-.1l.109.338A1,1,0,0,1,9.557,17.264Zm-2.082,0h0a1.578,1.578,0,0,1-.418-.057,1.268,1.268,0,0,1-.372-.168l.174-.313a1.2,1.2,0,0,0,.64.191.593.593,0,0,0,.276-.056.191.191,0,0,0,.113-.175c0-.135-.19-.167-.411-.2a1.6,1.6,0,0,1-.486-.133.43.43,0,0,1-.241-.409.561.561,0,0,1,.066-.274.528.528,0,0,1,.175-.186.987.987,0,0,1,.543-.139,1.37,1.37,0,0,1,.717.191l-.164.323a1.269,1.269,0,0,0-.577-.148c-.218,0-.343.074-.343.2s.19.17.41.2a1.522,1.522,0,0,1,.486.129.443.443,0,0,1,.242.424.521.521,0,0,1-.068.266.555.555,0,0,1-.183.186A1.084,1.084,0,0,1,7.476,17.263Zm-2.158,0a.879.879,0,0,1-.644-.271,1.038,1.038,0,0,1,0-1.375.878.878,0,0,1,.644-.273.717.717,0,0,1,.582.268v-.219h.393v1.829H5.9v-.229a.666.666,0,0,1-.244.2A.787.787,0,0,1,5.318,17.261Zm.055-1.541a.583.583,0,1,0,.542.582A.55.55,0,0,0,5.373,15.721Zm5.907,1.541a.988.988,0,0,1-.66-.234.941.941,0,0,1-.3-.73,1.1,1.1,0,0,1,.067-.389.892.892,0,0,1,.187-.3.835.835,0,0,1,.286-.2.94.94,0,0,1,.364-.07.774.774,0,0,1,.619.26,1.306,1.306,0,0,1,.246.864H10.726a.533.533,0,0,0,.547.449.876.876,0,0,0,.542-.205L12,17A1.116,1.116,0,0,1,11.28,17.261Zm-.067-1.556a.462.462,0,0,0-.472.432h.949A.456.456,0,0,0,11.213,15.706ZM21.7,17.251a.136.136,0,0,1-.07-.015.172.172,0,0,1-.055-.04.077.077,0,0,1-.04-.055.144.144,0,0,1-.015-.07.152.152,0,0,1,.015-.079.077.077,0,0,1,.04-.055.259.259,0,0,1,.055-.04.149.149,0,0,0,.046-.009.086.086,0,0,1,.023-.006.16.16,0,0,1,.04.007.16.16,0,0,0,.04.007.155.155,0,0,0,.027.02.108.108,0,0,1,.047.047.156.156,0,0,0,.02.027.152.152,0,0,1,.015.079.145.145,0,0,1-.015.07.155.155,0,0,0-.02.027.109.109,0,0,1-.047.047.155.155,0,0,0-.027.02A.153.153,0,0,1,21.7,17.251Zm0-.328a.091.091,0,0,0-.055.015l-.015.008a.076.076,0,0,0-.024.016l-.006.008a.076.076,0,0,0-.019.046c-.015.015-.015.03-.015.055a.091.091,0,0,0,.015.055c0,.015.01.025.025.04l.013.011a.043.043,0,0,0,.026.014.1.1,0,0,0,.055.015c.03,0,.04,0,.055-.015a.064.064,0,0,0,.055-.025.113.113,0,0,0,.008-.015.076.076,0,0,1,.017-.025.078.078,0,0,1,.009-.037.041.041,0,0,0,.006-.018.077.077,0,0,0-.009-.037.041.041,0,0,1-.006-.018.107.107,0,0,1-.012-.03.037.037,0,0,0-.013-.024.094.094,0,0,0-.022-.01.166.166,0,0,1-.033-.015C21.74,16.923,21.725,16.923,21.7,16.923Zm-18.892.293H2.416c0-.151,0-.294,0-.42h0c.008-.5.014-.836-.135-.986a.37.37,0,0,0-.277-.095.419.419,0,0,0-.316.107c-.156.16-.149.5-.138.965,0,.135.006.275.006.428H1.153V15.393h.408v.219a.631.631,0,0,1,.527-.268.66.66,0,0,1,.606.323.676.676,0,0,1,.294-.257.836.836,0,0,1,.342-.066.772.772,0,0,1,.533.209.718.718,0,0,1,.2.522h.01v1.143H3.663c0-.153,0-.3,0-.424.008-.5.014-.833-.133-.982a.371.371,0,0,0-.279-.094.414.414,0,0,0-.312.108c-.161.164-.153.505-.141.978,0,.132.006.268.006.416Zm15.616,0h-.393V15.393h.393v.219a.535.535,0,0,1,.488-.272.657.657,0,0,1,.267.053l-.119.378a.569.569,0,0,0-.243-.055c-.118,0-.393.046-.393.473v1.029Zm-5.517,0H12.5V15.393h.408v.219a.542.542,0,0,1,.485-.275.685.685,0,0,1,.271.056l-.119.378a.579.579,0,0,0-.25-.058c-.144,0-.386.062-.386.475v1.029Zm8.762-.065h-.04v-.174h.079a.078.078,0,0,1,.037.009.041.041,0,0,0,.018.006.06.06,0,0,1,0,.079.021.021,0,0,0-.014.006.036.036,0,0,1-.025.009l.055.065h-.04l-.055-.07H21.67v.07ZM6.884,13.757a6.925,6.925,0,0,1-1.386-.14,6.848,6.848,0,0,1-2.461-1.036,6.908,6.908,0,0,1-2.5-3.029,6.846,6.846,0,0,1-.4-1.292,6.919,6.919,0,0,1,0-2.769A6.832,6.832,0,0,1,1.175,3.038,6.91,6.91,0,0,1,4.2.546,6.84,6.84,0,0,1,6.874,0h.009a6.889,6.889,0,0,1,3.8,1.148,7.412,7.412,0,0,0,0,11.456,6.974,6.974,0,0,1-1.815.852A6.842,6.842,0,0,1,6.884,13.757Zm8.508,0h-.009a6.914,6.914,0,0,1-3.8-1.148,7.28,7.28,0,0,0,2.708-5.661,7.421,7.421,0,0,0-2.708-5.8A6.974,6.974,0,0,1,13.4.3,6.841,6.841,0,0,1,15.383,0a6.9,6.9,0,0,1,6.342,4.2,6.826,6.826,0,0,1,.542,2.672,6.926,6.926,0,0,1-.14,1.386,6.843,6.843,0,0,1-1.035,2.46,6.9,6.9,0,0,1-3.025,2.492,6.836,6.836,0,0,1-1.29.4,6.911,6.911,0,0,1-1.384.14h0Zm-4.259-1.471h0a6.84,6.84,0,0,1-1.145-1.13A6.727,6.727,0,0,1,9.17,9.839a6.833,6.833,0,0,1-.492-1.434,6.954,6.954,0,0,1,.485-4.458,6.817,6.817,0,0,1,.821-1.33,6.919,6.919,0,0,1,1.15-1.147,6.922,6.922,0,0,1,1.149,1.146,6.815,6.815,0,0,1,.82,1.329,6.9,6.9,0,0,1,.491,1.45,6.972,6.972,0,0,1,0,3.006A6.837,6.837,0,0,1,13.1,9.836a6.738,6.738,0,0,1-.819,1.313,6.858,6.858,0,0,1-1.145,1.132ZM21.6,11.148h-.04v-.229h-.094v-.04h.229v.04H21.6v.229Zm.189,0h-.04v-.268h.07l.08.174.079-.174h.07v.268h-.055v-.2l-.07.174h-.055l-.08-.174v.2Z" fill="#fff"/>
</svg>
