<svg xmlns="http://www.w3.org/2000/svg" width="64.819" height="17.272" viewBox="0 0 64.819 17.272">
  <g id="g10" transform="translate(0 0)">
    <g id="g12">
      <path id="path14" d="M8.577-140.366H3.018a.761.761,0,0,0-.763.616L.006-126.292a.446.446,0,0,0,.458.5H3.118a.76.76,0,0,0,.763-.616l.606-3.63a.76.76,0,0,1,.763-.616h1.76c3.662,0,5.776-1.673,6.328-4.988a3.867,3.867,0,0,0-.709-3.388A5.336,5.336,0,0,0,8.577-140.366Zm.641,4.916c-.3,1.883-1.828,1.883-3.3,1.883H5.078l.589-3.517a.456.456,0,0,1,.458-.369h.384c1,0,1.951,0,2.44.54a1.671,1.671,0,0,1,.27,1.463" transform="translate(0 140.367)" fill="#fff"/>
      <path id="path16" d="M105.479-104.061h-2.662a.464.464,0,0,0-.458.391l-.118.745-.186-.27c-.576-.837-1.862-1.116-3.144-1.116a6.122,6.122,0,0,0-5.944,5.354,5.025,5.025,0,0,0,.992,4.09,4.166,4.166,0,0,0,3.353,1.354A5.094,5.094,0,0,0,101-95.037l-.119.74a.463.463,0,0,0,.457.537h2.4a.773.773,0,0,0,.763-.653l1.439-9.112A.461.461,0,0,0,105.479-104.061Zm-3.711,5.182a2.967,2.967,0,0,1-3,2.542,2.246,2.246,0,0,1-1.788-.718,2.263,2.263,0,0,1-.418-1.871,2.98,2.98,0,0,1,2.983-2.562,2.246,2.246,0,0,1,1.775.725,2.3,2.3,0,0,1,.45,1.884" transform="translate(-81.72 108.152)" fill="#fff"/>
      <path id="path18" d="M211.173-102.466H208.5a.775.775,0,0,0-.64.339l-3.69,5.435-1.564-5.223a.775.775,0,0,0-.741-.551h-2.629a.464.464,0,0,0-.44.613l2.947,8.648-2.77,3.911a.463.463,0,0,0,.378.732h2.672a.771.771,0,0,0,.635-.332l8.9-12.844a.463.463,0,0,0-.38-.728" transform="translate(-174.862 105.835)" fill="#fff"/>
      <path id="path20" d="M300.827-140.366h-5.56a.76.76,0,0,0-.763.616l-2.249,13.459a.446.446,0,0,0,.457.5h2.853a.532.532,0,0,0,.533-.431l.638-3.815a.76.76,0,0,1,.763-.616h1.759c3.663,0,5.776-1.673,6.328-4.988a3.864,3.864,0,0,0-.71-3.388A5.33,5.33,0,0,0,300.827-140.366Zm.641,4.916c-.3,1.883-1.827,1.883-3.3,1.883h-.838l.589-3.517a.454.454,0,0,1,.457-.369h.385c1,0,1.951,0,2.44.54a1.671,1.671,0,0,1,.269,1.463" transform="translate(-257.144 140.367)" fill="#fff"/>
      <path id="path22" d="M397.745-104.061h-2.661a.461.461,0,0,0-.457.391l-.118.745-.187-.27c-.576-.837-1.861-1.116-3.144-1.116a6.121,6.121,0,0,0-5.943,5.354,5.028,5.028,0,0,0,.991,4.09,4.168,4.168,0,0,0,3.353,1.354,5.094,5.094,0,0,0,3.685-1.524l-.119.74a.464.464,0,0,0,.459.537H396a.772.772,0,0,0,.763-.653l1.44-9.112a.464.464,0,0,0-.459-.535Zm-3.711,5.182a2.966,2.966,0,0,1-3,2.542,2.248,2.248,0,0,1-1.788-.718,2.269,2.269,0,0,1-.418-1.871,2.981,2.981,0,0,1,2.983-2.562,2.246,2.246,0,0,1,1.775.725,2.293,2.293,0,0,1,.45,1.884" transform="translate(-339.553 108.152)" fill="#fff"/>
      <path id="path24" d="M486.491-140,484.209-126.3a.446.446,0,0,0,.457.5h2.294a.759.759,0,0,0,.763-.616l2.25-13.458a.446.446,0,0,0-.457-.506h-2.569a.457.457,0,0,0-.457.37" transform="translate(-425.161 140.371)" fill="#fff"/>
    </g>
  </g>
</svg>
