<svg xmlns="http://www.w3.org/2000/svg" width="65.733" height="17.273" viewBox="0 0 65.733 17.273">
  <g id="Group_614" data-name="Group 614" transform="translate(0 0)">
    <path id="path236" d="M-.1,0,3.86,7.277l-8.327,7.281Z" transform="translate(61.872 1.356)" fill="#fff"/>
    <path id="path240" d="M-.1,0,3.855,7.277l-8.322,7.281Z" transform="translate(59.129 1.356)" fill="#fff"/>
    <path id="path244" d="M0-.328,3.95-14.558h6.314c1.973,0,3.292.312,3.962.956s.794,1.681.393,3.146A5.416,5.416,0,0,1,13.5-8.3a5.2,5.2,0,0,1-1.982,1.36,1.735,1.735,0,0,1,1.331.993,3.7,3.7,0,0,1-.065,2.167L12.3-1.788v.054c-.139.557-.1.854.128.879l-.146.527H8.014c.014-.335.041-.634.069-.885a4.215,4.215,0,0,1,.107-.593l.4-1.421A2.1,2.1,0,0,0,8.615-4.78c-.188-.3-.609-.455-1.273-.455h-1.8L4.179-.328ZM6.436-8.441H8.358a2.814,2.814,0,0,0,1.478-.3,1.7,1.7,0,0,0,.671-1.03c.139-.5.1-.846-.094-1.044a2.2,2.2,0,0,0-1.424-.3H7.176Z" transform="translate(0 14.558)" fill="#fff"/>
    <path id="path248" d="M-.29,0-3.2,9.354H-6.74l.435-1.37a6.949,6.949,0,0,1-1.9,1.223,5.131,5.131,0,0,1-2.018.4,3.549,3.549,0,0,1-1.492-.282,1.934,1.934,0,0,1-.919-.847,2.185,2.185,0,0,1-.23-1.218A12.292,12.292,0,0,1-12.3,4.854L-10.786,0h3.87L-8.422,4.831a2.562,2.562,0,0,0-.165,1.475c.112.273.41.414.894.414a1.724,1.724,0,0,0,1.236-.478,3.219,3.219,0,0,0,.808-1.424L-4.155,0Z" transform="translate(25.563 3.73)" fill="#fff"/>
    <path id="path252" d="M0-.328,3.945-14.558H9.373a12.927,12.927,0,0,1,2.785.226,3.449,3.449,0,0,1,1.561.73,2.9,2.9,0,0,1,.9,1.657,5.384,5.384,0,0,1-.2,2.335,6.726,6.726,0,0,1-2.321,3.661A6.606,6.606,0,0,1,7.98-4.685H5.44L4.234-.328ZM6.4-8.16H7.767a3.968,3.968,0,0,0,1.866-.319,1.829,1.829,0,0,0,.754-1.13c.152-.546.113-.927-.117-1.14a2.806,2.806,0,0,0-1.695-.319H7.213Z" transform="translate(22.926 14.558)" fill="#fff"/>
    <path id="path256" d="M-.152-1.388l.039-.893A7.332,7.332,0,0,1-2-1.349a6.642,6.642,0,0,1-2.028.3,2.9,2.9,0,0,1-2.3-.783,2.24,2.24,0,0,1-.21-2.207A3.475,3.475,0,0,1-5.021-6.1a9.6,9.6,0,0,1,3.648-.968c.216-.031.506-.057.869-.1,1.26-.131,1.968-.431,2.12-.922a.472.472,0,0,0-.155-.588,1.87,1.87,0,0,0-1-.188,1.921,1.921,0,0,0-.992.23,1.42,1.42,0,0,0-.6.708H-4.9a4,4,0,0,1,2.082-2.393,8.916,8.916,0,0,1,4.115-.806,9.652,9.652,0,0,1,2.149.212,3.439,3.439,0,0,1,1.4.578,1.67,1.67,0,0,1,.651,1.019,3.618,3.618,0,0,1-.228,1.624L3.642-2.445a.939.939,0,0,0-.034.464.55.55,0,0,0,.213.328l-.087.266Zm.941-4.2A15.314,15.314,0,0,1-.82-5.141q-1.564.376-1.756,1a.584.584,0,0,0,.093.626,1.011,1.011,0,0,0,.742.223A2.522,2.522,0,0,0-.2-3.727,2.679,2.679,0,0,0,.677-5.1c.035-.134.066-.23.086-.3Z" transform="translate(41.172 14.48)" fill="#fff"/>
    <path id="path260" d="M0-.338.859-3.446H1.967a1.6,1.6,0,0,0,.867-.206,1.121,1.121,0,0,0,.434-.685,2.458,2.458,0,0,0,.083-.449,4.982,4.982,0,0,0,0-.575L2.76-14.976H6.677L6.617-8.6l3.42-6.371H13.68L7.634-4.526Q6.6-2.774,6.132-2.118a5.017,5.017,0,0,1-.9,1A3.356,3.356,0,0,1,4-.454a7.852,7.852,0,0,1-2.059.2c-.266,0-.571-.005-.9-.022S.358-.31,0-.338" transform="translate(43.34 17.528)" fill="#fff"/>
  </g>
</svg>
