<svg xmlns="http://www.w3.org/2000/svg" width="53.42" height="17.272" viewBox="0 0 53.42 17.272">
  <path id="visa" d="M49.46,25.143l-.5-2.5h-5.6l-.89,2.486-4.485.009q4.324-10.394,6.419-15.4a1.959,1.959,0,0,1,1.968-1.311q1.1.01,3.575,0L53.42,25.137Zm-4.835-5.934h3.606l-1.347-6.277ZM15.714,8.425l4.51,0L13.253,25.145l-4.565,0q-1.722-6.623-3.4-13.257a2.291,2.291,0,0,0-1.511-1.79Q1.9,9.465,0,8.89V8.429H7.205A2.022,2.022,0,0,1,9.413,10.27q.354,1.86,1.781,9.469Zm10.706,0L22.857,25.143l-4.294-.007L22.125,8.425Zm8.7-.309a11.843,11.843,0,0,1,3.833.77L38.2,12.354a9.72,9.72,0,0,0-3.39-.779c-1.692.029-2.738.739-2.738,1.42,0,1.108,1.816,1.667,3.686,2.878,2.132,1.38,2.415,2.62,2.388,3.969-.029,2.793-2.388,5.551-7.365,5.551a12.29,12.29,0,0,1-4.941-.881l.783-3.615a9.362,9.362,0,0,0,4.3,1.039c1.476,0,2.742-.6,2.753-1.636.009-.739-.445-1.106-2.1-2.019S27.6,16.1,27.627,13.558C27.665,10.3,30.748,8.12,35.124,8.12Z" transform="translate(0 -8.12)" fill="#fff"/>
</svg>
